<svg width="162" height="130" viewBox="0 0 162 130" fill="none" xmlns="http://www.w3.org/2000/svg">
<g filter="url(#filter0_d)">
<path d="M19.6751 123.425C19.355 123.105 14.5539 120.544 14.5539 120.544C14.5539 120.544 -7.8515 106.136 4.95156 80.2024L14.5539 64.1939L19.0349 66.7553C19.0349 66.7553 40.16 78.2813 30.5577 105.176L19.6751 123.425Z" fill="white"/>
<path d="M78.8891 122.785L32.478 31.2165C32.478 30.8963 32.478 30.5762 32.478 30.256L48.1618 0.480254C48.4819 -0.160085 49.4421 -0.160085 49.7622 0.480254L96.1733 92.3688C96.1733 92.689 96.1733 93.0092 96.1733 93.3293L80.4895 123.105C80.1694 123.425 79.2092 123.425 78.8891 122.785Z" fill="#B9181B"/>
<path d="M140.984 122.785L94.5732 31.2165C94.5732 30.8963 94.5732 30.5762 94.5732 30.256L110.257 0.480254C110.577 -0.160085 111.537 -0.160085 111.857 0.480254L158.268 92.3688C158.268 92.689 158.268 93.0092 158.268 93.3293L142.585 123.105C142.265 123.425 141.304 123.425 140.984 122.785Z" fill="#B9181B"/>
</g>
<defs>
<filter id="filter0_d" x="0" y="0" width="161.268" height="129.425" filterUnits="userSpaceOnUse" color-interpolation-filters="sRGB">
<feFlood flood-opacity="0" result="BackgroundImageFix"/>
<feColorMatrix in="SourceAlpha" type="matrix" values="0 0 0 0 0 0 0 0 0 0 0 0 0 0 0 0 0 0 127 0"/>
<feOffset dx="1" dy="4"/>
<feGaussianBlur stdDeviation="1"/>
<feColorMatrix type="matrix" values="0 0 0 0 0 0 0 0 0 0 0 0 0 0 0 0 0 0 0.75 0"/>
<feBlend mode="normal" in2="BackgroundImageFix" result="effect1_dropShadow"/>
<feBlend mode="normal" in="SourceGraphic" in2="effect1_dropShadow" result="shape"/>
</filter>
</defs>
</svg>
