<svg width="898" height="287" viewBox="0 0 898 287" fill="none" xmlns="http://www.w3.org/2000/svg">
<g filter="url(#filter0_dd)">
<path d="M246.091 28V255" stroke="#B9181B" stroke-miterlimit="10"/>
<path d="M49.5642 203.133C49.2442 202.812 44.443 200.251 44.443 200.251C44.443 200.251 22.0377 185.843 34.8407 159.91L44.443 143.901L48.9241 146.463C48.9241 146.463 70.0491 157.989 60.4468 184.883L49.5642 203.133Z" fill="white"/>
<path d="M108.778 202.492L62.3672 110.924C62.3672 110.604 62.3672 110.283 62.3672 109.963L78.0509 80.1876C78.371 79.5472 79.3312 79.5472 79.6513 80.1876L126.062 172.076C126.062 172.396 126.062 172.716 126.062 173.037L110.379 202.812C110.059 203.133 109.098 203.133 108.778 202.492Z" fill="#B9181B"/>
<path d="M170.873 202.492L124.462 110.924C124.462 110.604 124.462 110.283 124.462 109.963L140.146 80.1876C140.466 79.5472 141.426 79.5472 141.747 80.1876L188.158 172.076C188.158 172.396 188.158 172.716 188.158 173.037L172.474 202.812C172.154 203.133 171.194 203.133 170.873 202.492Z" fill="#B9181B"/>
<path d="M339.553 28.3202V72.1834H335.712V31.842L320.989 72.1834H317.468L302.745 31.842V72.1834H298.904V28.3202H305.305L319.068 67.701L333.152 28.3202H339.553V28.3202ZM355.557 50.4118C355.557 36.3244 364.519 28 376.362 28C388.205 28 397.167 36.3244 397.167 50.0917C397.167 63.859 388.205 72.5035 376.362 72.5035C364.519 72.5035 355.557 64.4993 355.557 50.4118ZM393.006 50.4118C393.006 38.5656 385.644 31.5219 376.362 31.5219C367.08 31.5219 359.398 38.5656 359.398 50.4118C359.398 62.2581 366.76 69.3018 376.362 69.3018C385.964 69.3018 393.006 61.9379 393.006 50.4118ZM446.779 28.3202V72.1834H442.938L417.332 34.4034V72.1834H413.491V28.3202H417.332L442.938 66.1001V28.3202H446.779ZM489.669 60.3371H469.184L464.703 72.5035H460.862L477.186 28.6403H481.667L497.991 72.5035H494.15L489.669 60.3371ZM488.389 56.8152L479.427 32.8025L470.465 56.8152H488.389ZM542.162 57.1354H546.003C545.042 66.1001 538.961 72.8237 527.758 72.8237C516.556 72.8237 508.234 64.1791 508.234 50.4118C508.234 36.9647 516.556 28 527.758 28C538.641 28 545.042 34.7236 546.003 43.6883H542.162C541.202 36.6446 536.72 31.5219 527.758 31.5219C518.796 31.5219 512.075 38.8858 512.075 50.4118C512.075 61.9379 518.796 69.3018 527.758 69.3018C536.72 69.3018 541.522 63.859 542.162 57.1354ZM559.126 50.4118C559.126 36.3244 568.088 28 579.931 28C591.774 28 600.736 36.3244 600.736 50.0917C600.736 63.859 591.774 72.5035 579.931 72.5035C568.088 72.5035 559.126 64.4993 559.126 50.4118ZM596.575 50.4118C596.575 38.5656 589.213 31.5219 579.931 31.5219C570.649 31.5219 562.967 38.5656 562.967 50.4118C562.967 62.2581 570.329 69.3018 579.931 69.3018C589.533 69.3018 596.575 61.9379 596.575 50.4118ZM333.472 103.88C333.472 113.485 327.39 118.928 316.188 118.928H308.506V133.016H296.663V88.8322H315.868C327.39 88.8322 333.472 93.9549 333.472 103.88ZM321.629 103.88C321.629 100.678 319.709 98.4372 316.188 98.4372H308.506V109.643H316.188C319.709 109.323 321.629 107.402 321.629 103.88ZM338.593 110.924C338.593 97.1566 347.875 88.1918 361.319 88.1918C374.762 88.1918 384.044 97.1566 384.044 110.924C384.044 124.691 374.762 133.656 361.319 133.656C347.875 133.656 338.593 124.691 338.593 110.924ZM371.881 110.924C371.881 102.92 367.08 98.4372 360.998 98.4372C354.917 98.4372 350.116 102.92 350.116 110.924C350.116 118.928 354.917 123.41 360.998 123.41C367.08 123.41 371.881 118.928 371.881 110.924ZM449.66 88.8322L438.137 133.016H424.694L418.612 102.599L412.211 133.016H398.447L386.925 88.8322H398.447L405.809 122.45L412.211 88.8322H424.694L431.095 122.45L438.137 88.8322H449.66ZM488.389 123.41V133.016H456.061V88.8322H488.069V98.4372H467.584V106.441H485.188V115.726H467.584V123.731H488.389V123.41ZM535.44 132.695C534.16 133.016 532.559 133.336 529.999 133.336C522.957 133.336 520.397 130.454 518.156 126.292L513.995 118.288H508.234V133.016H496.391V88.8322H515.275C526.478 88.8322 532.88 94.275 532.88 103.56C532.88 109.323 529.999 113.485 525.518 116.047L528.398 122.13C529.359 123.731 530.319 124.691 531.919 124.691C532.88 124.691 533.84 124.691 534.48 124.371L535.44 132.695ZM508.554 109.323H515.595C519.436 109.323 521.357 107.402 521.357 103.88C521.357 100.678 519.436 98.4372 515.595 98.4372H508.554V109.323ZM554.645 110.924C554.645 97.1566 563.927 88.1918 577.37 88.1918C590.813 88.1918 600.096 97.1566 600.096 110.924C600.096 124.691 590.813 133.656 577.37 133.656C563.927 133.656 554.645 124.691 554.645 110.924ZM587.933 110.924C587.933 102.92 583.132 98.4372 577.05 98.4372C570.969 98.4372 566.168 102.92 566.168 110.924C566.168 118.928 570.969 123.41 577.05 123.41C583.132 123.41 587.933 118.928 587.933 110.924ZM619.62 98.4372V108.362H636.904V117.647H619.62V133.016H607.777V88.8322H639.145V98.4372H619.62ZM333.472 164.392C333.472 173.997 327.39 179.44 316.188 179.44H308.506V193.527H296.663V149.664H315.868C327.39 149.664 333.472 154.787 333.472 164.392ZM321.629 164.712C321.629 161.511 319.709 159.269 316.188 159.269H308.506V170.475H316.188C319.709 170.155 321.629 167.914 321.629 164.712ZM338.593 171.756C338.593 157.989 347.875 149.024 361.319 149.024C374.762 149.024 384.044 157.989 384.044 171.756C384.044 185.523 374.762 194.488 361.319 194.488C347.875 194.488 338.593 185.523 338.593 171.756ZM371.881 171.756C371.881 163.752 367.08 159.269 360.998 159.269C354.917 159.269 350.116 163.752 350.116 171.756C350.116 179.76 354.917 184.243 360.998 184.243C367.08 184.243 371.881 179.44 371.881 171.756ZM425.974 181.041C425.974 189.365 418.292 194.168 407.09 194.168C395.567 194.168 389.165 189.045 389.165 180.08H401.008C401.008 182.962 403.249 184.563 407.73 184.563C411.891 184.563 414.451 183.282 414.451 181.041C414.451 173.037 390.125 180.08 390.125 162.471C390.125 154.467 397.167 149.024 407.73 149.024C418.612 149.024 425.334 154.467 425.334 163.111H413.491C413.491 159.91 411.571 158.629 407.41 158.629C403.569 158.629 401.328 159.91 401.328 162.471C401.648 169.835 425.974 162.791 425.974 181.041ZM433.976 149.664H445.819V193.848H433.976V149.664V149.664ZM465.664 159.269H452.22V149.664H490.95V159.269H477.506V193.848H465.664V159.269V159.269ZM497.351 149.664H509.194V193.848H497.351V149.664ZM558.166 149.664L543.122 193.848H529.999L514.635 149.664H526.478L536.72 182.642L546.963 149.664H558.166ZM596.575 184.243V193.848H564.247V149.664H596.255V159.269H575.77V167.274H593.374V176.559H575.77V184.563H596.575V184.243ZM618.98 149.664H630.823V193.848H618.98V149.664ZM690.357 149.664V193.848H679.155V164.072L669.232 193.848H662.19L652.268 164.072V193.848H641.065V149.664H655.789L666.031 180.401L676.274 149.664H690.357ZM737.088 164.392C737.088 173.997 731.007 179.44 719.804 179.44H712.122V193.527H700.28V149.664H719.484C731.007 149.664 737.088 154.787 737.088 164.392ZM725.245 164.712C725.245 161.511 723.325 159.269 719.804 159.269H712.122V170.475H719.804C723.325 170.155 725.245 167.914 725.245 164.712ZM767.176 185.523H750.852L748.291 193.848H736.448L751.812 149.664H765.575L780.939 193.848H769.096L767.176 185.523ZM764.295 176.879L758.854 158.949L753.412 176.879H764.295ZM814.547 176.879H826.07C825.109 186.484 819.028 194.488 804.945 194.488C792.462 194.488 783.499 185.203 783.499 171.756C783.499 158.309 792.462 149.024 804.945 149.024C818.708 149.024 825.109 157.028 826.07 166.633H814.547C813.907 163.111 811.346 159.269 805.265 159.269C799.503 159.269 795.342 164.072 795.342 171.756C795.342 179.44 799.503 184.243 805.265 184.243C811.666 184.243 814.227 180.401 814.547 176.879ZM842.714 159.269H829.27V149.664H868V159.269H854.556V193.848H842.714V159.269V159.269ZM327.39 243.474C327.39 250.518 320.669 255 311.707 255C302.104 255 295.383 250.518 295.383 242.193H299.224C299.224 247.956 304.025 251.478 311.707 251.478C318.748 251.478 323.229 248.597 323.229 243.474C323.229 229.707 296.663 239.312 296.663 222.023C296.663 214.659 303.065 210.496 311.707 210.496C320.669 210.496 326.43 214.979 326.43 222.663H322.589C322.589 216.58 318.108 213.698 311.707 213.698C304.665 213.698 300.824 216.58 300.824 221.702C300.824 234.829 327.39 225.224 327.39 243.474ZM382.764 210.496V237.391C382.764 248.597 376.682 255 366.12 255C355.237 255 349.476 248.597 349.476 237.391V210.496H353.317V237.391C353.317 246.676 357.798 251.478 366.12 251.478C374.442 251.478 378.923 246.676 378.923 237.391V210.496H382.764ZM448.379 210.496V254.36H444.538V214.338L429.815 254.68H426.294L411.571 214.338V254.68H407.73V210.817H414.131L428.215 250.197L442.298 210.817H448.379V210.496ZM514.315 210.496V254.36H510.474V214.338L495.751 254.68H492.23L477.506 214.338V254.68H473.665V210.817H480.067L494.15 250.197L507.914 210.496H514.315ZM539.601 210.496H543.442V254.36H539.601V210.496ZM578.33 214.018H563.607V210.496H597.215V214.018H582.491V254.36H578.33V214.018Z" fill="white"/>
</g>
<defs>
<filter id="filter0_dd" x="0.88916" y="0" width="897.11" height="287" filterUnits="userSpaceOnUse" color-interpolation-filters="sRGB">
<feFlood flood-opacity="0" result="BackgroundImageFix"/>
<feColorMatrix in="SourceAlpha" type="matrix" values="0 0 0 0 0 0 0 0 0 0 0 0 0 0 0 0 0 0 127 0"/>
<feOffset dy="2"/>
<feGaussianBlur stdDeviation="15"/>
<feColorMatrix type="matrix" values="0 0 0 0 0 0 0 0 0 0 0 0 0 0 0 0 0 0 0.3 0"/>
<feBlend mode="normal" in2="BackgroundImageFix" result="effect1_dropShadow"/>
<feColorMatrix in="SourceAlpha" type="matrix" values="0 0 0 0 0 0 0 0 0 0 0 0 0 0 0 0 0 0 127 0"/>
<feOffset dy="4"/>
<feGaussianBlur stdDeviation="2"/>
<feColorMatrix type="matrix" values="0 0 0 0 0 0 0 0 0 0 0 0 0 0 0 0 0 0 0.25 0"/>
<feBlend mode="normal" in2="effect1_dropShadow" result="effect2_dropShadow"/>
<feBlend mode="normal" in="SourceGraphic" in2="effect2_dropShadow" result="shape"/>
</filter>
</defs>
</svg>
