<?xml version="1.0" standalone="no"?>
<!DOCTYPE svg PUBLIC "-//W3C//DTD SVG 20010904//EN"
 "http://www.w3.org/TR/2001/REC-SVG-20010904/DTD/svg10.dtd">
<svg version="1.0" xmlns="http://www.w3.org/2000/svg"
 width="648.000000pt" height="648.000000pt" viewBox="0 0 648.000000 648.000000"
 preserveAspectRatio="xMidYMid meet">
<metadata>
Created by potrace 1.11, written by Peter Selinger 2001-2013
</metadata>
<g transform="translate(0.000000,648.000000) scale(0.100000,-0.100000)"
fill="#000000" stroke="none">
<path d="M1933 5828 c-10 -13 -45 -78 -168 -313 -32 -60 -79 -150 -105 -200
-97 -183 -154 -292 -190 -360 -138 -261 -170 -326 -170 -347 0 -13 13 -49 29
-80 16 -31 27 -59 23 -63 -4 -3 0 -10 8 -15 8 -5 15 -20 15 -32 1 -13 6 -22
14 -20 7 1 9 -2 5 -9 -3 -6 0 -15 7 -20 12 -7 12 -10 0 -21 -10 -9 -12 -10 -7
-1 5 9 2 11 -8 7 -24 -9 -19 -22 7 -20 26 2 49 -12 41 -26 -3 -5 2 -16 12 -23
11 -8 15 -15 10 -15 -5 0 -3 -6 3 -14 10 -12 8 -19 -8 -35 -11 -11 -17 -22
-12 -25 4 -3 13 4 21 14 8 10 17 17 21 14 5 -3 1 -13 -8 -24 -23 -26 -26 -50
-5 -43 11 5 13 3 7 -7 -5 -9 -4 -11 3 -6 7 4 12 2 12 -4 0 -6 5 -8 11 -4 8 4
7 9 -2 16 -11 8 -11 9 1 5 8 -2 15 -10 15 -18 1 -8 6 -13 13 -11 7 1 12 -2 12
-8 0 -5 -7 -10 -15 -10 -8 0 -15 4 -15 8 0 12 -39 12 -46 0 -4 -6 -2 -8 4 -4
19 12 80 -26 94 -58 7 -17 12 -34 10 -38 -1 -5 3 -8 8 -8 7 0 7 -7 0 -20 -6
-11 -15 -18 -21 -15 -5 4 -4 -5 3 -20 8 -18 14 -22 20 -13 7 12 12 4 9 -15 -1
-5 3 -6 9 -2 8 5 7 11 -1 21 -6 8 -7 14 -2 14 12 0 48 -62 45 -79 -2 -7 1 -10
7 -6 7 4 8 0 4 -11 -5 -13 -3 -15 7 -9 8 5 11 4 6 -3 -3 -6 -2 -13 4 -17 6 -4
8 -10 5 -15 -3 -4 2 -10 10 -14 9 -3 12 -12 8 -22 -5 -13 -3 -15 8 -9 8 5 11
4 6 0 -14 -16 -36 -13 -36 3 -2 40 -5 51 -14 45 -6 -4 -7 -1 -2 7 6 9 4 11 -6
5 -8 -5 -11 -4 -6 0 4 5 0 19 -8 31 -10 16 -11 24 -3 26 9 3 9 6 0 12 -7 4
-12 2 -12 -5 0 -8 -4 -8 -15 1 -9 7 -18 10 -22 6 -3 -3 -1 -6 6 -6 7 0 9 -5 6
-10 -4 -6 -11 -7 -17 -4 -7 4 -8 2 -4 -5 6 -9 11 -9 22 0 13 11 18 6 15 -14
-1 -5 3 -6 8 -3 14 9 20 -16 9 -38 -8 -14 -7 -17 3 -11 16 11 38 -21 32 -45
-5 -17 -1 -19 25 -16 21 2 29 -1 25 -9 -2 -7 -14 -11 -26 -9 l-22 5 22 -10
c16 -7 21 -17 18 -37 -2 -26 -2 -27 11 -9 11 14 14 15 14 4 0 -8 -4 -19 -10
-25 -6 -6 -2 -10 12 -11 13 -1 18 1 12 5 -7 4 -8 15 -3 27 7 19 8 19 8 -1 1
-12 8 -25 17 -28 9 -4 14 -9 11 -13 -4 -3 -2 -12 4 -20 6 -7 8 -13 4 -13 -4 0
-2 -7 5 -15 7 -8 9 -15 4 -16 -5 0 0 -5 11 -10 l20 -9 -20 3 c-11 2 -19 9 -17
15 1 7 -3 12 -9 12 -6 0 -8 7 -5 16 3 9 2 12 -5 9 -6 -4 -8 -13 -5 -21 3 -8 0
-14 -7 -15 -7 0 -2 -4 11 -10 13 -5 21 -13 17 -18 -3 -5 -1 -12 4 -16 5 -3 8
-15 6 -27 -3 -11 -2 -18 2 -14 10 10 32 -14 26 -30 -3 -9 1 -14 13 -14 16 0
17 2 4 10 -13 9 -13 10 0 10 12 1 11 3 -3 11 -9 6 -14 15 -11 21 5 7 2 8 -6 3
-9 -6 -11 -4 -5 5 6 9 4 11 -6 5 -8 -5 -11 -5 -7 0 4 4 3 14 -3 22 -7 8 -8 13
-1 13 5 0 13 -7 16 -16 3 -8 10 -13 15 -9 6 3 8 -4 6 -15 -3 -13 1 -20 12 -20
9 0 13 -6 10 -14 -3 -8 1 -20 8 -26 8 -7 12 -16 9 -21 -3 -5 0 -9 5 -9 6 0 11
-7 11 -15 0 -8 5 -15 11 -15 6 0 9 -5 7 -11 -2 -6 -8 -9 -13 -7 -6 2 -9 6 -7
11 1 4 -2 7 -8 7 -6 0 -9 5 -8 11 2 6 -8 18 -22 26 l-25 15 24 -21 c13 -11 20
-21 17 -21 -4 0 -2 -10 5 -22 10 -18 9 -20 -5 -15 -10 4 -15 3 -11 -3 3 -5 19
-8 35 -6 22 2 27 0 22 -12 -3 -10 -1 -13 6 -8 12 7 21 -4 27 -36 3 -12 10 -25
16 -28 7 -5 5 -9 -6 -13 -10 -5 -14 -3 -9 5 4 6 3 8 -3 5 -6 -4 -9 3 -8 18 2
13 -1 23 -5 22 -5 -1 -15 7 -24 18 -12 16 -17 18 -28 7 -11 -11 -10 -12 6 -6
13 5 17 4 12 -4 -4 -7 -2 -12 5 -12 8 0 7 -5 -2 -17 -12 -16 -12 -17 2 -6 16
13 29 8 29 -9 0 -5 -4 -7 -8 -4 -5 3 -9 -1 -9 -9 0 -8 3 -13 5 -10 3 3 11 0
19 -6 10 -9 10 -15 2 -25 -8 -10 -8 -14 0 -14 10 0 15 13 12 33 0 4 3 7 9 7 5
0 10 -5 10 -11 0 -5 5 -7 12 -3 7 4 8 3 4 -5 -4 -6 -13 -8 -19 -5 -7 4 -9 4
-5 -1 4 -4 3 -13 -2 -20 -7 -8 -5 -12 5 -12 8 0 12 4 9 9 -8 13 6 9 21 -6 12
-12 12 -15 -1 -20 -8 -3 -12 -2 -9 4 3 6 -1 7 -10 4 -14 -6 -13 -8 4 -20 19
-14 21 -37 6 -67 -4 -6 3 -1 15 13 18 22 20 23 18 5 -2 -11 -7 -24 -13 -28 -6
-5 -2 -6 8 -3 15 5 17 2 12 -14 -4 -13 -2 -20 6 -20 7 0 9 -3 6 -6 -4 -4 3
-15 15 -25 30 -26 33 -24 9 7 -11 15 -18 31 -14 37 4 6 1 7 -7 2 -9 -5 -11 -4
-6 4 4 6 3 17 -3 24 -6 8 -6 18 -1 27 9 13 10 13 11 0 1 -8 1 -18 0 -22 0 -5
4 -8 10 -8 5 0 8 -4 5 -9 -3 -5 1 -14 9 -21 7 -6 11 -19 8 -27 -4 -11 -2 -14
6 -9 6 4 11 4 10 -1 -4 -21 2 -34 13 -27 7 4 8 3 4 -4 -4 -6 -14 -9 -24 -6
-12 4 -12 2 3 -7 37 -24 52 -44 48 -64 -2 -11 -4 -28 -4 -38 0 -11 -5 -15 -12
-11 -7 4 -8 3 -4 -2 5 -5 14 -9 20 -9 7 -1 11 -6 10 -11 -1 -6 4 -11 12 -11
11 0 9 7 -6 28 -11 15 -15 30 -10 33 5 4 12 2 16 -4 3 -5 3 -10 -1 -10 -4 0 1
-7 12 -15 10 -8 15 -15 10 -15 -5 0 -3 -7 4 -15 7 -8 9 -15 5 -15 -5 0 0 -9 9
-19 17 -18 17 -20 -3 -40 -12 -12 -17 -21 -12 -21 5 0 16 7 25 15 8 8 18 15
22 15 3 0 1 -7 -6 -15 -11 -14 -7 -19 12 -16 4 0 4 -7 1 -16 -5 -12 -3 -14 8
-8 11 7 11 5 -1 -10 -14 -17 -13 -18 5 -11 11 4 16 4 12 0 -4 -4 -1 -14 6 -22
10 -13 9 -14 -2 -7 -11 6 -13 4 -8 -9 4 -10 7 -21 7 -24 0 -4 4 -1 9 6 7 11 9
10 14 -3 4 -9 3 -13 -3 -10 -21 13 -9 -8 15 -27 20 -16 23 -23 15 -39 -6 -10
-7 -19 -3 -19 4 0 1 -5 -7 -10 -9 -6 -11 -10 -3 -10 8 0 10 -7 6 -17 -6 -15
-5 -16 9 -3 9 8 13 17 9 20 -9 7 -8 27 3 37 5 4 6 3 3 -3 -4 -7 3 -23 14 -38
11 -14 17 -26 14 -26 -4 0 4 -15 17 -33 l25 -32 -29 -2 c-26 -2 -27 0 -17 18
6 12 9 23 6 25 -2 2 -9 -8 -16 -22 -10 -23 -9 -26 9 -31 11 -3 17 -10 13 -16
-3 -6 -1 -7 6 -3 6 4 9 13 5 19 -3 7 1 4 9 -5 8 -10 17 -16 20 -13 4 3 5 2 2
-2 -3 -3 2 -15 12 -25 9 -10 13 -18 9 -18 -4 0 2 -13 13 -28 24 -34 14 -63
-13 -37 -9 9 -16 12 -16 7 0 -5 12 -17 26 -27 15 -9 24 -12 20 -7 -3 6 -1 14
5 18 7 4 9 3 6 -3 -4 -6 0 -16 8 -23 18 -15 20 -33 3 -27 -7 2 -12 10 -10 16
1 8 -4 8 -18 -1 -18 -12 -18 -13 -2 -22 9 -6 26 -11 37 -11 16 0 19 -6 17 -27
-1 -15 2 -29 8 -33 6 -4 7 1 4 12 -6 16 -5 15 9 -2 8 -10 12 -26 9 -34 -4 -10
-1 -12 9 -6 8 4 11 4 6 0 -4 -5 0 -16 9 -26 8 -9 17 -26 19 -36 1 -10 8 -17
15 -15 6 1 9 -2 5 -8 -4 -6 -2 -17 4 -24 9 -10 8 -15 -3 -19 -10 -4 -13 -1 -9
9 3 7 -1 14 -8 14 -7 0 -9 3 -6 6 3 4 -2 18 -13 32 -11 13 -18 27 -16 31 3 4
-4 12 -15 19 -11 7 -19 8 -19 2 0 -5 5 -10 10 -10 6 0 10 -5 10 -11 0 -5 -4
-8 -8 -5 -4 2 -8 -4 -8 -15 0 -18 2 -19 12 -4 10 13 12 13 17 1 3 -8 3 -17 -1
-19 -4 -2 -2 -2 5 -1 7 2 15 -1 18 -6 4 -6 0 -10 -7 -10 -8 0 -6 -5 5 -11 15
-9 16 -13 6 -25 -7 -8 -8 -14 -3 -13 21 4 26 -2 14 -16 -10 -12 -9 -16 4 -20
9 -3 24 -8 33 -12 10 -3 21 -5 26 -5 4 1 8 -3 8 -8 1 -6 2 -15 3 -20 0 -6 8
-15 16 -21 13 -10 13 -10 -1 -6 -9 3 -21 -4 -28 -15 -10 -16 -10 -18 0 -12 9
5 10 2 5 -12 -4 -10 -4 -15 0 -11 4 4 13 2 20 -4 8 -7 14 -6 20 2 5 8 3 9 -6
4 -10 -6 -12 -4 -7 9 4 9 3 14 -2 11 -5 -3 -12 -1 -16 5 -3 5 1 10 9 10 18 0
35 -29 28 -49 -3 -9 0 -11 8 -6 9 5 11 4 6 -4 -4 -6 -12 -8 -18 -5 -7 4 -8 2
-4 -5 4 -6 13 -10 19 -9 7 2 12 0 12 -4 0 -3 8 -14 17 -24 16 -19 18 -23 18
-45 0 -5 5 -7 12 -3 7 5 8 3 3 -6 -6 -10 -11 -9 -21 5 -7 10 -11 22 -8 27 3 5
0 7 -8 6 -8 -2 -13 6 -12 19 1 13 -3 20 -7 17 -5 -3 -7 -10 -4 -15 4 -5 0 -9
-7 -9 -10 0 -10 -2 1 -9 11 -7 11 -10 0 -14 -9 -4 -6 -6 5 -4 10 1 21 -4 24
-12 2 -8 0 -11 -5 -8 -5 3 -10 0 -10 -8 0 -8 4 -15 9 -15 4 0 8 5 8 12 0 6 3
8 7 4 7 -6 11 -24 15 -58 1 -9 5 -15 9 -12 13 7 18 -23 6 -36 -9 -10 -9 -11 2
-5 11 6 13 4 8 -11 -7 -18 -6 -18 7 -1 14 18 15 18 25 0 6 -11 11 -13 11 -5 0
7 5 10 11 6 15 -9 -9 -24 -28 -17 -7 3 -13 0 -13 -7 0 -6 5 -8 11 -4 7 4 10 1
7 -6 -2 -7 7 -24 20 -37 19 -19 21 -27 11 -39 -10 -12 -9 -13 5 -8 11 4 15 12
10 23 -3 9 -7 25 -9 36 -4 30 -5 31 -15 15 -6 -9 -10 -10 -10 -3 0 19 17 24
30 8 6 -8 13 -26 15 -41 1 -14 8 -30 15 -34 9 -5 9 -9 1 -14 -6 -4 -11 -2 -11
4 0 6 -5 8 -11 4 -8 -5 -6 -10 5 -16 9 -5 21 -6 28 -2 6 4 8 3 4 -4 -3 -5 -1
-12 5 -14 5 -2 7 -11 4 -21 -4 -9 -12 -14 -19 -10 -6 3 -4 -2 5 -13 9 -10 14
-26 12 -34 -4 -12 -3 -12 5 -2 16 23 55 2 45 -24 -3 -8 0 -14 6 -14 6 0 11 -7
11 -16 0 -9 5 -12 13 -8 8 5 8 2 -2 -9 -12 -15 -9 -21 11 -18 5 0 7 -2 6 -7
-1 -4 3 -17 10 -29 7 -13 9 -23 5 -23 -4 0 -2 -4 5 -9 7 -4 15 -17 16 -27 2
-10 8 -18 13 -17 11 2 11 -42 0 -53 -3 -4 -5 3 -2 14 2 12 -1 25 -7 28 -7 5
-9 0 -6 -13 3 -11 1 -28 -5 -38 -7 -14 -7 -16 3 -10 23 14 58 14 56 -1 -1 -7
-6 -17 -11 -21 -4 -4 -5 -2 0 6 6 10 4 12 -5 6 -9 -6 -11 -4 -5 6 7 12 5 12
-6 1 -12 -11 -12 -14 0 -21 8 -5 20 -7 27 -4 6 2 15 -1 20 -8 4 -8 3 -10 -4
-5 -8 5 -12 0 -12 -13 0 -12 -5 -21 -12 -21 -6 0 -8 -3 -5 -7 4 -3 16 2 27 12
20 18 21 18 14 0 -6 -14 -4 -16 6 -10 9 5 11 4 6 -4 -4 -6 -11 -9 -15 -7 -4 3
-13 1 -21 -4 -12 -7 -11 -9 5 -9 39 -1 54 -4 49 -12 -2 -4 0 -10 5 -14 6 -3 7
-13 4 -23 -6 -15 -5 -15 10 -3 16 12 22 8 18 -13 -1 -5 8 -6 19 -3 21 5 21 5
5 -20 -9 -13 -14 -28 -10 -31 3 -4 10 -1 14 7 9 14 17 14 44 0 11 -6 17 -6 17
1 0 5 5 10 11 10 8 0 8 -4 0 -14 -10 -11 -9 -14 1 -12 22 3 39 17 33 27 -4 5
-1 9 5 9 7 0 9 9 5 23 -6 21 -6 21 10 3 14 -19 15 -18 11 12 -4 37 -11 48 -21
33 -3 -6 -1 -11 4 -11 6 0 11 -5 11 -12 0 -6 -3 -8 -7 -5 -3 4 -13 1 -21 -6
-11 -8 -14 -8 -9 0 4 6 1 14 -5 16 -10 4 -10 6 0 6 10 1 10 6 2 24 -11 21 -10
21 4 3 15 -18 21 -15 16 9 -1 5 7 2 18 -8 21 -19 32 -22 32 -6 0 5 -4 7 -10 4
-9 -6 -15 8 -11 29 1 5 -6 6 -16 2 -16 -5 -16 -5 -2 6 16 13 19 19 19 39 0 5
5 7 10 4 6 -3 10 0 10 7 1 9 5 7 14 -4 7 -10 17 -18 21 -18 4 0 2 7 -5 15 -11
13 -10 18 6 30 10 8 25 12 33 9 11 -4 12 -2 1 11 -10 12 -10 15 1 15 12 0 12
2 0 9 -8 5 -9 11 -3 15 6 4 15 -2 21 -11 9 -16 10 -16 8 4 0 12 -5 19 -10 16
-5 -3 -7 0 -5 8 3 8 11 13 17 11 7 -1 9 2 5 9 -5 8 -1 11 13 7 12 -3 20 0 20
7 0 7 -9 10 -21 8 -19 -4 -19 -3 4 15 14 12 21 24 17 29 -5 4 -15 -1 -23 -11
-14 -19 -14 -19 -12 5 2 19 8 24 30 24 15 1 28 -3 28 -9 0 -5 3 -6 6 -3 11 11
-18 38 -30 28 -6 -5 -20 -5 -31 0 -17 6 -18 8 -2 8 9 1 22 12 29 26 6 13 15
22 19 19 5 -3 9 1 9 10 0 8 -6 16 -12 19 -8 2 -9 8 -4 13 5 5 11 4 13 -4 3 -6
8 -10 13 -7 17 11 3 -28 -16 -42 -19 -14 -19 -14 1 -26 23 -13 50 -19 40 -9
-4 4 -12 7 -18 7 -5 0 -12 6 -15 14 -3 10 0 12 11 8 12 -4 14 -2 10 10 -5 13
-3 14 18 3 l24 -11 -25 20 c-20 17 -22 21 -7 21 9 0 17 4 17 9 0 5 -8 8 -17 7
-13 -1 -18 7 -18 25 -1 18 3 25 12 22 9 -4 11 0 7 13 -4 11 -4 16 0 12 4 -3 9
-12 10 -20 6 -27 25 -63 25 -48 1 9 -5 22 -11 29 -11 11 -8 12 12 7 23 -6 23
-6 5 5 -19 12 -19 12 0 21 18 8 18 8 -2 4 -13 -2 -24 2 -27 11 -3 8 -10 11
-16 8 -5 -3 -10 -1 -10 4 0 13 17 14 24 2 7 -11 56 -11 56 0 0 4 9 11 21 14
11 4 18 9 16 12 -3 2 -15 0 -26 -7 -14 -7 -21 -7 -21 0 0 6 12 15 27 21 20 7
23 13 15 21 -20 20 -13 32 6 15 15 -14 19 -15 19 -2 0 8 -4 12 -8 9 -4 -2 -13
5 -19 16 -6 11 -7 20 -3 20 4 0 -2 7 -13 15 -18 15 -18 15 0 8 15 -5 17 -3 11
8 -4 8 -5 11 0 7 4 -4 17 -3 29 3 l21 10 -21 -18 c-26 -23 -25 -47 1 -50 15
-2 16 -1 5 5 -30 14 -20 39 13 33 5 -1 6 3 3 8 -4 5 2 14 11 20 14 9 15 12 5
19 -27 18 -5 43 31 36 19 -3 19 -3 2 16 -15 17 -35 19 -35 4 0 -3 5 -2 12 2 7
4 8 3 4 -5 -4 -6 -11 -9 -16 -6 -4 3 -13 -1 -19 -9 -7 -9 -8 -15 -2 -18 5 -1
3 -11 -5 -22 -10 -14 -14 -16 -14 -5 0 12 -2 12 -11 -1 -9 -13 -10 -13 -6 0 2
8 10 14 16 13 17 -4 13 8 -6 23 -14 11 -14 13 -2 9 8 -3 24 4 35 16 10 11 17
22 14 23 -2 0 5 16 15 33 14 24 22 29 28 20 6 -8 7 -4 4 11 -3 13 -1 20 5 16
6 -4 8 1 4 14 -4 12 -2 23 5 28 9 5 10 2 6 -9 -3 -10 -2 -17 4 -17 5 0 2 -14
-7 -31 -8 -17 -12 -34 -7 -38 4 -3 7 -5 6 -3 -5 12 21 61 30 55 6 -3 7 -1 3 5
-10 16 6 15 24 0 12 -11 12 -10 0 5 -7 10 -19 16 -25 13 -7 -2 -12 4 -11 15 1
11 4 19 9 19 4 0 10 0 15 0 4 0 0 -5 -8 -10 -9 -6 -10 -10 -3 -10 6 0 15 5 18
10 4 6 10 8 15 5 5 -3 12 0 16 6 4 7 3 9 -4 5 -6 -3 -13 -2 -17 3 -3 5 3 14
12 20 12 7 14 13 8 18 -12 9 -13 28 -2 39 4 4 7 -1 8 -12 0 -11 3 -13 6 -6 2
6 10 10 16 6 7 -3 4 1 -7 10 -14 12 -22 12 -37 3 -13 -8 -15 -13 -6 -19 7 -5
8 -8 1 -8 -22 0 -23 13 -1 36 17 18 25 20 37 11 13 -10 13 -10 3 4 -13 16 -8
29 9 29 5 0 6 -5 2 -12 -5 -7 -3 -8 6 -3 10 6 9 11 -4 21 -10 7 -18 16 -19 21
-1 4 -8 7 -14 7 -7 -1 -13 5 -13 13 0 8 4 12 8 9 4 -2 14 -1 21 3 7 5 1 8 -19
9 -19 0 -28 -3 -24 -10 4 -7 2 -8 -5 -4 -8 6 -9 12 -2 20 6 7 8 16 4 19 -3 4
-1 7 6 7 7 0 9 5 5 12 -5 8 -2 9 11 4 14 -5 15 -3 7 6 -5 7 -12 24 -14 38 -1
14 -6 27 -9 30 -4 3 -41 75 -84 160 -42 85 -82 161 -87 168 -6 6 -8 12 -4 12
3 0 -8 23 -25 52 -17 28 -28 59 -26 69 3 12 0 16 -9 12 -13 -5 -19 14 -15 40
1 5 -3 6 -9 2 -9 -6 -15 16 -10 40 1 6 -2 7 -6 2 -7 -6 -34 43 -33 60 1 3 -3
9 -8 12 -4 3 -55 101 -113 216 -58 116 -108 212 -112 213 -5 2 -8 8 -8 14 0
15 -73 162 -85 170 -5 4 -6 8 -2 8 5 0 0 12 -11 28 -11 15 -20 31 -20 35 -1 9
-85 180 -92 187 -12 12 -60 111 -60 125 0 8 -4 15 -9 15 -7 0 -22 31 -33 70
-1 3 -8 11 -15 18 -7 7 -13 20 -13 28 0 8 -5 14 -11 14 -8 0 -7 6 2 17 8 9 9
14 3 10 -13 -8 -67 90 -58 105 4 7 3 8 -4 4 -11 -6 -14 0 -11 20 0 4 -3 10 -8
13 -15 10 -112 209 -106 215 4 3 2 6 -4 6 -6 0 -19 20 -30 45 -10 25 -21 45
-25 45 -5 0 -8 7 -8 15 0 9 -7 27 -16 40 -9 13 -12 30 -8 36 4 7 3 9 -4 5 -6
-4 -16 8 -23 29 -7 19 -17 35 -22 35 -5 0 -7 6 -4 14 3 8 -1 17 -9 20 -8 3
-14 15 -14 26 0 11 -4 20 -10 20 -5 0 -10 9 -10 20 0 11 -4 20 -8 20 -8 0 -36
60 -33 73 0 4 -3 7 -8 7 -9 0 -26 48 -22 63 1 5 -2 6 -7 3 -12 -7 -54 83 -46
97 4 7 4 9 -1 5 -10 -9 -56 82 -48 95 3 6 2 7 -4 4 -6 -4 -19 14 -29 38 -10
25 -22 45 -28 45 -5 0 -7 2 -4 5 5 6 -64 147 -82 170 -5 6 -9 15 -11 20 -9 37
-12 45 -20 45 -5 0 -9 9 -9 20 0 11 -4 20 -10 20 -5 0 -10 7 -10 15 0 17 -15
46 -42 84 -10 13 -18 32 -18 41 0 10 -7 23 -15 30 -8 7 -13 16 -10 20 3 5 2
10 -2 12 -5 1 -33 53 -65 113 -56 110 -81 134 -105 103z m-429 -1647 c7 -11
-14 -20 -31 -13 -7 2 -10 8 -7 13 7 12 31 12 38 0z m89 -216 c-10 -7 -20 -12
-21 -10 -7 7 23 33 31 28 5 -3 0 -11 -10 -18z m133 -234 c-4 -5 -1 -11 6 -13
8 -3 6 -6 -4 -10 -11 -5 -15 -2 -13 10 5 23 4 22 11 22 3 0 3 -4 0 -9z m288
-572 c-2 -4 1 -9 8 -11 7 -3 4 -7 -7 -12 -11 -4 -16 -4 -12 0 4 4 2 12 -3 19
-7 8 -5 12 5 12 8 0 12 -4 9 -8z m1850 -1166 c-3 9 -2 17 3 17 20 0 9 -32 -14
-43 -27 -12 -55 4 -32 18 8 5 10 4 5 -3 -4 -7 -1 -12 8 -12 18 0 21 16 6 25
-5 3 -10 12 -10 18 0 7 9 1 20 -13 12 -15 18 -18 14 -7z m-1241 -29 c-1 -5 3
-15 9 -21 7 -9 7 -13 -1 -13 -6 0 -11 4 -11 9 0 5 -10 7 -22 3 -20 -5 -21 -3
-11 10 7 8 10 17 7 21 -3 3 2 4 13 3 10 -2 17 -7 16 -12z m1200 -17 c7 3 9 2
4 -2 -4 -5 -16 -9 -27 -10 -16 -1 -17 1 -8 13 8 9 14 10 16 3 2 -6 9 -8 15 -4z
m-53 -41 c0 -2 -7 -7 -16 -10 -8 -3 -12 -2 -9 4 6 10 25 14 25 6z m28 -21 c-3
-3 -9 2 -12 12 -6 14 -5 15 5 6 7 -7 10 -15 7 -18z m45 2 c4 3 7 1 7 -5 0 -7
-5 -12 -11 -12 -6 0 -8 -7 -4 -17 5 -14 3 -15 -6 -6 -6 6 -18 9 -25 6 -8 -3
-14 0 -14 7 0 6 5 8 10 5 9 -6 15 8 11 29 -1 5 4 4 12 -2 8 -7 17 -9 20 -5z
m-69 -49 c-3 -4 -9 -8 -15 -8 -5 0 -9 4 -9 8 0 5 7 9 15 9 8 0 12 -4 9 -9z
m-27 -45 c2 -6 -1 -14 -6 -18 -6 -3 -8 0 -5 8 4 11 -2 14 -20 12 -15 -2 -24 0
-21 4 6 11 48 6 52 -6z m-23 -42 c-2 -3 -12 3 -22 13 -16 17 -16 18 5 5 12 -7
20 -15 17 -18z m-35 -37 c-7 -8 -6 -14 3 -17 7 -3 3 -4 -9 -4 -15 1 -19 5 -13
13 6 6 8 13 5 16 -3 2 2 5 10 5 10 0 12 -4 4 -13z m-905 -60 c3 -8 2 -12 -4
-9 -6 3 -10 2 -10 -3 0 -6 6 -12 14 -15 8 -3 19 -14 25 -24 7 -15 6 -19 -9
-19 -12 0 -17 6 -15 17 2 10 -3 20 -12 23 -8 4 -13 13 -10 20 3 8 1 17 -6 20
-7 2 -5 5 4 5 9 1 20 -6 23 -15z m846 -37 c0 -2 -8 -11 -18 -20 -15 -14 -19
-15 -19 -2 0 8 4 12 8 9 4 -2 10 0 14 6 6 10 15 14 15 7z m-1 -51 c9 -11 9
-16 -1 -22 -7 -4 -10 -4 -6 1 4 4 3 14 -3 22 -6 7 -9 13 -6 13 2 0 10 -6 16
-14z m-48 -13 c13 -16 12 -17 -3 -4 -17 13 -22 21 -14 21 2 0 10 -8 17 -17z
m64 -23 c-4 -6 -1 -17 5 -25 10 -12 9 -15 -6 -16 -11 -1 -25 -1 -33 0 -7 2
-10 -2 -6 -8 3 -7 0 -8 -10 -5 -11 5 -14 2 -9 -10 3 -9 10 -14 14 -11 5 3 11
1 14 -4 6 -10 -19 -9 -29 1 -11 10 -14 49 -4 42 5 -3 16 0 24 6 8 6 20 8 27 4
11 -6 11 -5 0 8 -10 13 -10 17 0 21 19 8 20 8 13 -3z m-51 -11 c3 -3 -5 -5
-19 -5 -13 0 -22 3 -19 7 4 8 30 6 38 -2z m-667 -165 c-9 -9 -28 6 -21 18 4 6
10 6 17 -1 6 -6 8 -13 4 -17z m573 -34 c0 -5 -8 -10 -17 -10 -15 0 -16 2 -3
10 19 12 20 12 20 0z m-40 -94 c0 -2 -9 -6 -20 -9 -11 -3 -18 -1 -14 4 5 9 34
13 34 5z m-73 -21 c0 -8 -4 -12 -9 -9 -5 3 -6 10 -3 15 9 13 12 11 12 -6z m68
-5 c-3 -5 -2 -10 4 -10 15 0 6 -32 -14 -46 -10 -8 -15 -14 -11 -14 5 0 3 -6
-3 -13 -6 -8 -8 -17 -4 -20 3 -4 1 -7 -6 -7 -7 0 -10 -4 -6 -9 6 -10 -33 -36
-42 -28 -2 3 4 8 15 11 17 6 21 18 13 44 -1 1 -1 5 0 8 0 4 -5 11 -13 16 -10
8 -10 9 2 5 8 -2 14 -10 13 -16 -3 -12 10 -15 20 -4 4 3 1 13 -6 21 -8 10 -8
13 -1 9 13 -8 27 15 33 56 0 4 4 7 7 7 3 0 2 -4 -1 -10z m-78 -38 c-10 -10
-15 -21 -12 -24 3 -2 -2 -5 -10 -5 -12 0 -10 6 7 24 25 27 39 32 15 5z m-12
-94 c-9 -6 -19 -7 -22 -4 -4 3 -1 6 6 6 7 0 9 4 6 10 -4 6 1 7 11 3 15 -6 15
-7 -1 -15z m-35 -24 c0 -8 -19 -13 -24 -6 -3 5 1 9 9 9 8 0 15 -2 15 -3z m-36
-22 c3 -5 -1 -9 -9 -9 -8 0 -12 4 -9 9 3 4 7 8 9 8 2 0 6 -4 9 -8z m31 -11 c3
-5 2 -12 -3 -15 -5 -3 -9 1 -9 9 0 17 3 19 12 6z m-65 -91 c-8 -5 -19 -10 -25
-10 -5 0 -3 5 5 10 8 5 20 10 25 10 6 0 3 -5 -5 -10z m26 -36 c-3 -7 -1 -16 4
-19 6 -4 10 -1 10 4 0 6 5 11 11 11 8 0 9 -4 0 -13 -6 -8 -8 -16 -5 -19 3 -3
-1 -9 -8 -14 -7 -4 -10 -4 -6 1 13 14 -13 37 -27 25 -10 -8 -15 -7 -21 2 -4 7
-4 10 1 6 4 -4 14 -3 22 3 16 14 18 33 1 23 -7 -4 -8 -3 -4 5 10 15 29 3 22
-15z"/>
<path d="M4415 5827 c-5 -7 -34 -60 -64 -117 -30 -58 -66 -127 -81 -155 -15
-27 -52 -97 -82 -155 -87 -166 -198 -377 -250 -475 -27 -49 -74 -140 -105
-201 l-57 -112 20 -43 c10 -24 18 -45 17 -46 -2 -2 6 -19 17 -39 11 -19 16
-33 10 -29 -17 10 -11 -7 8 -22 9 -8 11 -12 5 -8 -7 3 -21 1 -30 -5 -17 -11
-17 -11 0 -6 21 7 60 -11 53 -23 -3 -5 3 -16 14 -26 15 -14 17 -21 9 -32 -10
-12 -6 -17 13 -14 4 0 3 -11 -2 -25 -9 -22 -8 -25 4 -21 18 7 31 -9 17 -18 -6
-3 -7 -13 -4 -22 4 -10 2 -14 -4 -10 -5 3 -10 0 -10 -8 0 -9 4 -11 11 -6 12 9
49 11 40 2 -3 -3 -11 -6 -17 -6 -6 0 -12 -12 -12 -27 -2 -23 1 -26 17 -17 11
6 18 6 18 0 0 -5 -6 -12 -12 -14 -10 -4 -10 -6 0 -6 6 -1 12 -8 12 -17 0 -19
22 -14 28 7 3 11 2 11 -7 -1 -10 -13 -11 -13 -12 0 -1 8 -2 22 -3 30 0 9 -9
14 -21 12 -13 -3 -17 0 -10 6 12 12 30 19 31 12 0 -3 7 -16 15 -30 13 -24 18
-42 22 -82 1 -13 7 -16 22 -12 16 4 17 3 5 -5 -10 -7 -11 -11 -2 -11 6 0 12
-7 12 -16 0 -9 5 -12 13 -8 6 4 9 4 5 -1 -4 -4 -3 -14 3 -22 6 -7 8 -13 3 -13
-4 0 0 -6 9 -13 20 -14 33 -67 17 -67 -6 0 -9 4 -5 9 3 5 1 12 -4 16 -6 3 -8
12 -4 20 3 8 0 15 -5 15 -19 0 -22 -18 -6 -34 8 -9 12 -16 8 -16 -4 0 1 -9 10
-19 10 -11 15 -24 12 -30 -4 -5 -2 -12 4 -16 7 -4 6 -13 -1 -28 -9 -17 -9 -19
0 -11 16 14 23 57 9 48 -7 -4 -8 -3 -4 4 4 6 14 8 22 5 9 -3 12 -9 7 -12 -4
-3 -9 -14 -9 -24 -2 -13 3 -16 20 -12 17 5 18 4 6 -4 -13 -10 -13 -11 0 -11 8
-1 3 -7 -12 -16 -16 -8 -28 -17 -28 -20 0 -3 5 -2 12 2 6 4 22 8 35 10 18 2
23 -1 19 -13 -3 -8 -6 -17 -6 -19 0 -3 -5 -2 -10 1 -6 4 -7 12 -4 18 5 8 2 8
-7 -1 -11 -10 -9 -15 9 -28 19 -13 21 -19 11 -30 -7 -9 -8 -14 -3 -12 5 2 9
-1 9 -7 0 -5 -4 -9 -8 -7 -5 1 -5 -2 -2 -8 4 -6 10 -9 13 -6 3 3 15 -2 26 -11
20 -18 20 -17 6 2 -14 18 -13 19 1 8 9 -7 20 -9 25 -5 4 4 4 0 -2 -8 -6 -8
-11 -28 -12 -45 0 -25 1 -26 7 -10 5 11 7 23 5 27 -3 4 1 10 7 14 8 4 9 3 5
-4 -4 -7 -1 -12 6 -12 9 0 10 -3 2 -8 -6 -4 -10 -15 -8 -24 1 -10 -3 -18 -9
-18 -7 0 -6 -4 2 -9 8 -5 20 -7 28 -4 11 4 10 8 -3 18 -14 9 -14 14 -4 20 8 5
11 4 7 -2 -4 -6 1 -14 11 -18 15 -6 15 -8 -5 -25 -13 -10 -23 -21 -23 -25 0
-4 6 -2 14 4 11 10 19 7 35 -10 20 -22 22 -27 25 -59 1 -8 7 -14 14 -12 17 3
15 -3 -5 -19 -15 -12 -16 -12 -8 1 5 9 0 8 -13 -4 -24 -21 -31 -36 -8 -17 21
18 49 -24 35 -53 -10 -20 -9 -20 5 -3 14 18 15 18 25 -2 16 -29 14 -35 -6 -20
-16 12 -17 12 -6 -2 7 -9 9 -20 5 -24 -4 -5 -2 -5 5 -2 6 4 13 4 16 0 2 -5 2
-3 1 4 -5 20 13 24 27 6 10 -12 10 -14 2 -9 -8 4 -13 1 -13 -8 0 -10 6 -13 18
-10 13 5 14 4 3 -4 -8 -6 -20 -8 -28 -5 -7 3 -13 0 -13 -7 0 -6 4 -9 9 -5 15
9 25 -13 33 -72 1 -7 5 -10 9 -7 4 2 10 0 13 -5 4 -5 -2 -12 -11 -14 -17 -4
-17 -5 0 -6 10 0 16 -5 13 -9 -2 -4 5 -9 17 -9 17 -2 19 0 7 7 -8 5 -11 10 -6
10 5 0 3 6 -3 13 -6 8 -7 18 -3 22 4 5 1 5 -7 0 -10 -6 -12 -4 -6 5 6 9 4 11
-5 5 -9 -5 -11 -4 -6 3 4 7 2 12 -4 12 -7 0 -10 6 -7 14 3 7 1 18 -4 23 -6 6
-5 10 4 10 7 0 14 -8 14 -18 1 -9 9 -25 17 -36 9 -10 17 -22 17 -28 1 -5 6
-19 12 -30 6 -11 10 -26 8 -34 -1 -8 2 -10 11 -5 10 6 10 4 -1 -9 -7 -9 -10
-17 -5 -17 5 0 2 -5 -6 -10 -11 -8 -9 -9 10 -5 18 4 28 0 37 -14 8 -12 9 -22
3 -26 -5 -3 -6 -13 -3 -23 5 -15 3 -14 -17 3 l-24 20 24 -32 c14 -18 29 -32
34 -32 5 -1 3 5 -3 13 -9 11 -9 16 0 22 7 4 9 3 5 -4 -3 -6 1 -15 10 -20 9 -5
15 -12 15 -15 -3 -24 0 -31 8 -18 6 9 9 5 9 -14 l0 -27 -19 28 c-16 25 -18 26
-16 7 0 -12 5 -19 11 -16 5 4 7 -1 3 -10 -9 -24 9 -30 29 -10 16 16 17 16 12
1 -4 -9 0 -22 8 -28 18 -16 18 -26 -2 -34 -8 -3 -12 -2 -9 3 3 5 1 12 -5 16
-6 4 -8 11 -5 16 3 5 -1 6 -10 2 -13 -5 -14 -7 -3 -14 9 -6 9 -9 1 -9 -7 0 -1
-12 13 -27 19 -21 27 -24 37 -14 9 10 8 11 -5 6 -10 -4 -18 -3 -18 2 0 5 9 9
21 10 14 1 19 -3 16 -12 -3 -7 -3 -16 1 -20 4 -4 7 -12 7 -18 1 -7 7 -11 15
-9 8 2 12 0 8 -4 -4 -4 -3 -13 3 -21 6 -7 8 -13 4 -13 -4 0 -1 -7 6 -17 13
-15 12 -15 -11 -3 -14 7 -32 18 -40 24 -9 6 -1 -3 18 -21 21 -21 39 -30 50
-26 13 4 13 2 -3 -11 -17 -15 -17 -17 -3 -12 18 5 43 -25 31 -37 -8 -9 23 -37
33 -29 5 4 3 0 -4 -9 -6 -9 -9 -19 -6 -22 10 -10 13 -57 4 -57 -10 0 -7 -27 3
-35 4 -3 5 -2 2 2 -3 3 3 12 13 20 9 8 12 12 5 9 -6 -3 -10 0 -9 6 2 15 21 23
21 9 0 -5 3 -12 7 -16 11 -11 -3 -36 -16 -28 -6 4 -4 -2 4 -12 14 -17 13 -18
-5 -12 -19 7 -19 6 -2 -7 9 -7 28 -12 42 -10 14 1 23 -2 20 -7 -3 -5 -1 -18 6
-30 8 -15 8 -19 0 -15 -6 4 -11 3 -11 -1 0 -5 10 -13 22 -18 13 -6 23 -21 25
-38 3 -19 0 -26 -7 -22 -6 3 -8 10 -5 15 3 5 1 11 -5 15 -6 4 -7 12 -4 18 4 7
4 9 -1 5 -4 -4 -17 -3 -29 3 -14 8 -12 3 8 -15 16 -14 25 -26 21 -26 -4 0 -1
-8 8 -17 8 -10 16 -21 16 -25 1 -11 11 -11 19 -2 4 4 2 4 -5 1 -7 -5 -9 0 -5
15 5 21 6 21 12 2 4 -10 5 -25 2 -33 -4 -10 -1 -12 8 -6 8 5 11 4 6 -3 -4 -6
-13 -9 -21 -5 -8 3 -15 1 -15 -5 0 -6 11 -9 25 -7 18 1 29 -4 37 -19 6 -11 11
-23 10 -26 -1 -3 5 -13 13 -22 8 -10 10 -18 4 -18 -5 0 -7 -5 -4 -10 4 -6 11
-8 16 -5 5 3 6 -2 2 -11 -5 -13 -3 -15 7 -9 9 6 11 4 6 -4 -5 -7 0 -21 10 -32
14 -15 14 -19 3 -14 -15 6 -54 73 -51 87 1 4 -6 4 -16 1 -15 -6 -15 -5 -3 10
11 14 11 18 -5 23 -11 4 -22 8 -25 10 -3 2 -6 -3 -6 -12 0 -10 7 -12 21 -8 18
6 19 5 7 -9 -11 -14 -11 -18 3 -23 9 -3 13 -11 9 -17 -4 -6 -1 -7 7 -2 10 6
12 4 7 -9 -4 -9 -3 -15 2 -12 13 9 21 -20 9 -32 -12 -12 -2 -32 15 -32 7 0 6
4 -3 10 -8 5 -11 13 -6 17 4 4 14 0 21 -11 8 -10 19 -15 26 -10 8 4 10 3 5 -4
-4 -7 -2 -12 4 -12 7 0 9 -8 5 -20 -4 -14 -2 -20 6 -18 7 2 14 -3 15 -9 1 -7
2 -18 3 -24 0 -5 6 -7 12 -3 8 5 8 1 0 -14 -15 -28 -14 -37 3 -23 11 9 16 9
22 0 4 -8 3 -9 -4 -5 -7 4 -12 1 -12 -9 0 -11 5 -15 14 -12 11 4 13 1 9 -10
-4 -11 -2 -14 5 -9 7 4 10 2 7 -7 -3 -7 3 -24 14 -36 12 -13 18 -28 15 -32 -3
-5 0 -9 6 -9 6 0 8 -5 5 -10 -3 -6 -1 -10 5 -10 6 0 9 -4 6 -9 -4 -5 -1 -11 6
-13 7 -3 5 -7 -6 -11 -9 -4 -15 -3 -11 2 3 5 -1 15 -8 23 -8 7 -13 21 -11 31
1 10 -2 14 -8 11 -7 -5 -8 -2 -3 6 6 9 4 11 -5 5 -9 -6 -11 -4 -5 6 5 8 5 11
0 7 -4 -4 -13 -3 -20 2 -8 7 -12 5 -12 -5 0 -8 3 -13 6 -11 3 2 15 -6 26 -17
l20 -20 -20 6 c-18 7 -19 6 -3 -6 10 -8 14 -17 10 -21 -4 -4 0 -6 8 -4 8 2 15
-3 16 -9 1 -7 2 -17 3 -23 0 -5 9 -10 19 -10 14 0 15 2 2 10 -13 8 -13 10 1
10 15 0 34 -25 31 -42 -1 -3 5 -11 13 -18 10 -8 11 -18 5 -35 -5 -13 -6 -26
-2 -30 3 -3 0 -10 -7 -14 -15 -10 -7 -31 12 -31 7 0 6 4 -3 10 -13 9 -7 14 12
11 10 -1 6 22 -6 30 -4 4 -3 10 3 13 6 4 12 2 12 -3 1 -6 2 -17 3 -23 1 -7 8
-12 15 -10 7 1 10 -2 7 -7 -4 -5 -2 -12 3 -16 6 -3 7 -13 4 -22 -5 -12 -3 -14
7 -8 9 5 11 4 6 -4 -4 -6 0 -18 8 -27 9 -9 14 -19 11 -24 -3 -4 2 -11 11 -14
9 -4 14 -9 11 -13 -4 -3 -13 0 -21 6 -11 9 -16 9 -22 0 -4 -8 -3 -9 4 -5 7 4
12 3 12 -3 0 -5 -6 -12 -12 -14 -7 -3 2 -4 20 -2 18 2 30 0 27 -5 -3 -4 2 -13
10 -20 8 -7 13 -16 10 -20 -3 -5 0 -12 5 -15 10 -6 25 -36 30 -60 1 -5 9 -18
17 -28 9 -9 13 -20 10 -23 -3 -4 -2 -15 3 -24 10 -19 -3 -22 -26 -8 -6 4 -11
1 -11 -5 0 -16 49 -18 60 -3 5 6 5 0 2 -13 -5 -16 -4 -21 4 -17 7 5 8 1 4 -10
-5 -14 -3 -16 11 -11 14 6 13 1 -5 -26 -13 -17 -17 -27 -9 -20 12 9 20 7 39
-8 13 -10 20 -19 15 -19 -4 0 -3 -5 3 -11 6 -6 9 -18 6 -27 -5 -11 -3 -13 7
-7 9 6 11 4 5 -5 -6 -10 -11 -9 -21 5 -7 10 -11 22 -8 26 3 5 0 9 -6 9 -6 0
-9 4 -5 9 9 15 -13 23 -32 11 -15 -9 -14 -10 7 -4 22 6 23 5 11 -10 -8 -9 -11
-19 -7 -23 3 -3 6 0 6 8 0 11 2 11 10 -1 5 -8 7 -28 5 -45 -4 -25 -3 -27 6
-12 10 17 29 15 29 -4 0 -6 -4 -8 -8 -5 -5 3 -9 -1 -9 -9 0 -8 5 -15 10 -15 5
0 3 -8 -4 -17 -12 -16 -12 -17 2 -6 9 7 18 10 21 7 3 -2 8 2 11 10 4 10 1 13
-7 10 -10 -4 -14 3 -12 20 1 27 16 37 16 11 0 -8 5 -15 11 -15 6 0 8 -9 4 -21
-6 -16 -4 -20 6 -14 8 5 11 5 7 0 -5 -5 1 -15 12 -22 12 -8 17 -19 13 -26 -13
-21 -11 -48 4 -43 25 10 44 -4 33 -24 -6 -11 -6 -21 -1 -24 5 -4 11 -1 13 6 3
7 7 5 11 -6 4 -10 3 -15 -3 -11 -6 3 -10 2 -10 -2 0 -5 10 -13 22 -18 12 -6
24 -16 26 -24 5 -16 -3 -10 -51 34 -26 24 -48 28 -40 8 4 -10 8 -11 13 -3 5 8
9 7 13 -4 4 -11 1 -16 -11 -17 -14 0 -14 -2 3 -8 11 -5 27 -6 35 -4 11 3 10 1
-2 -10 -10 -8 -18 -18 -18 -22 0 -4 8 -1 17 6 15 12 16 12 10 -6 -6 -17 -5
-18 5 -4 13 16 28 17 61 4 10 -4 17 -3 17 5 0 6 -5 8 -11 4 -7 -4 -10 -1 -7 7
3 8 11 13 17 11 8 -1 9 2 5 9 -5 9 -2 10 9 6 9 -3 19 -1 23 6 4 7 3 9 -1 4 -5
-4 -20 0 -33 9 -24 16 -25 16 -19 -5 3 -13 1 -19 -5 -14 -6 3 -8 1 -4 -5 3 -6
2 -13 -3 -16 -12 -8 -7 34 8 62 6 12 9 28 5 34 -4 7 -3 8 5 4 7 -5 9 -16 5
-28 -4 -15 -3 -18 6 -13 8 5 11 4 7 -1 -3 -6 4 -11 16 -11 17 -2 19 0 7 7 -12
7 -12 12 -2 22 15 15 16 28 1 28 -5 0 -8 -4 -4 -9 3 -5 0 -13 -6 -17 -7 -4 -9
-3 -5 4 3 6 2 13 -3 17 -5 3 -9 14 -8 24 1 13 7 17 22 12 17 -4 18 -6 3 -9
-28 -6 -21 -17 10 -17 16 0 29 5 29 12 0 7 -4 10 -9 7 -4 -3 -8 2 -8 10 0 10
-6 13 -17 10 -14 -4 -15 -3 -5 4 8 5 13 12 13 16 -2 16 0 18 12 7 8 -6 17 -8
20 -4 4 3 15 0 24 -8 15 -11 16 -11 6 1 -10 11 -9 18 5 34 10 12 12 16 3 11
-11 -6 -13 -4 -8 8 3 9 3 16 -1 16 -27 -4 -35 2 -17 14 11 9 15 19 10 27 -5 7
-4 11 1 8 5 -3 18 6 28 20 19 25 19 25 0 19 -12 -5 -9 1 9 14 23 18 26 24 15
38 -7 9 -8 13 -4 9 5 -4 14 -3 21 2 8 7 12 5 12 -5 0 -8 -3 -12 -7 -10 -4 2
-7 -2 -7 -10 0 -8 6 -16 12 -19 8 -3 11 5 9 19 -1 17 4 26 17 30 23 7 25 21 5
28 -11 4 -13 1 -9 -10 5 -12 2 -15 -10 -10 -10 4 -27 3 -40 -2 -19 -7 -23 -5
-23 10 0 13 3 15 13 7 18 -15 70 19 54 35 -6 6 -11 16 -11 22 0 5 5 2 11 -7 9
-17 39 -15 39 3 0 4 -6 6 -14 3 -7 -3 -16 2 -20 11 -3 9 -2 13 4 10 6 -3 13 1
16 9 3 9 10 13 15 10 5 -3 9 3 9 14 0 10 10 27 22 38 l21 19 -18 -27 c-9 -16
-13 -28 -9 -28 5 -1 -1 -9 -14 -20 -14 -11 -18 -21 -12 -25 13 -8 40 13 37 28
-1 7 6 11 16 9 9 -2 17 2 17 8 0 6 -4 9 -9 5 -14 -8 -21 9 -11 25 6 10 2 23
-13 40 -12 13 -15 19 -6 12 13 -10 19 -9 30 4 11 13 11 15 -2 12 -8 -1 -14 1
-14 7 0 5 6 8 14 7 7 -2 11 2 8 10 -2 7 -10 12 -16 10 -7 -1 -10 2 -6 8 5 8
11 8 20 0 8 -7 15 -7 19 -1 3 5 0 11 -6 14 -7 2 -9 8 -5 13 4 5 12 2 16 -5 6
-8 11 -9 15 -3 3 6 2 13 -4 17 -5 3 -10 14 -9 23 0 13 3 12 11 -5 14 -28 35
-30 43 -3 3 11 11 20 16 20 6 0 7 9 4 20 -4 11 -3 19 2 18 12 -4 15 5 8 24 -4
10 -11 15 -16 12 -5 -3 -9 0 -9 5 0 16 10 14 34 -6 12 -10 15 -11 9 -3 -19 21
-16 32 7 20 16 -9 18 -8 14 5 -3 8 -10 12 -15 9 -5 -3 -9 -1 -9 3 0 12 39 35
50 28 13 -8 5 24 -10 38 -7 6 -10 7 -7 2 9 -17 -9 -38 -35 -42 -18 -2 -20 -1
-8 7 12 8 13 10 1 10 -8 0 -11 3 -8 6 4 4 13 1 22 -6 9 -8 15 -9 15 -2 0 6 -8
16 -17 21 -11 6 -13 11 -5 12 6 1 17 3 22 4 6 1 13 3 18 4 4 1 0 6 -8 12 -12
8 -10 9 8 4 18 -5 22 -2 22 14 0 12 -5 21 -11 21 -5 0 -8 -4 -5 -9 4 -5 -2 -8
-11 -7 -10 2 -24 -4 -31 -13 -11 -14 -12 -13 -3 5 7 15 7 25 -2 35 -7 7 -3 6
9 -4 23 -19 47 -6 37 21 -4 10 -1 13 8 10 8 -3 14 -12 14 -21 0 -9 4 -16 9
-16 5 0 13 -5 17 -13 7 -10 9 -9 9 5 0 9 -4 17 -10 17 -5 0 -10 5 -10 11 0 6
9 8 23 4 17 -5 19 -4 7 4 -14 10 -7 15 13 12 5 -1 5 4 1 11 -11 17 -5 60 8 73
8 7 8 6 3 -4 -5 -9 -4 -12 3 -7 7 4 12 3 12 -1 0 -5 9 -9 19 -9 11 0 17 4 15
8 -3 4 -11 8 -17 8 -7 0 -13 9 -14 20 -1 11 2 18 7 15 10 -6 25 14 16 22 -3 3
-11 1 -19 -5 -9 -8 -17 -8 -27 0 -12 8 -12 9 3 4 11 -3 17 0 17 10 0 9 5 12
13 8 6 -4 9 -4 5 1 -4 4 -3 14 3 22 9 10 8 17 -2 30 -8 9 -14 26 -14 37 0 15
-6 20 -20 19 -11 -1 -14 0 -7 3 13 6 17 90 5 96 -14 6 -43 79 -37 90 4 6 3 8
-3 5 -10 -6 -38 40 -35 56 1 4 -2 7 -7 7 -5 0 -12 13 -16 30 -4 16 -10 30 -14
30 -5 0 -16 21 -26 48 -10 26 -21 49 -25 52 -8 6 -48 92 -48 104 0 5 -4 12 -9
15 -14 10 -65 111 -56 111 4 0 3 4 -2 8 -15 10 -76 132 -67 132 4 0 2 4 -4 8
-15 10 -196 372 -187 372 5 0 1 5 -7 10 -8 5 -15 13 -15 17 -1 4 -9 24 -20 43
-10 19 -18 42 -16 50 2 8 0 12 -4 8 -9 -9 -236 443 -228 456 4 5 1 6 -7 1 -10
-6 -12 -4 -6 11 4 10 4 15 0 11 -7 -6 -110 185 -116 215 -2 7 -6 15 -9 18 -3
3 -25 43 -47 89 -23 46 -47 90 -53 97 -6 8 -9 21 -5 29 3 9 2 14 -3 11 -7 -5
-82 135 -80 150 0 4 -3 10 -8 13 -12 9 -45 71 -37 71 3 0 2 6 -4 13 -20 25
-62 107 -55 107 4 0 3 4 -3 8 -12 8 -49 84 -46 95 1 4 -2 7 -7 7 -9 0 -37 60
-33 73 1 4 -2 7 -7 7 -10 0 -21 27 -20 44 0 5 -3 12 -8 15 -17 13 -63 112 -57
123 4 6 3 8 -3 5 -10 -6 -40 52 -41 77 0 5 -5 12 -10 15 -8 5 -44 66 -47 81
-4 14 -19 46 -24 50 -4 3 -17 30 -31 60 -14 30 -29 58 -34 61 -5 4 -5 12 -2
18 4 6 3 11 -3 11 -9 0 -41 55 -41 72 0 5 -5 14 -10 21 -6 7 -45 80 -86 162
-42 83 -81 156 -86 163 -13 15 -40 15 -53 -1z m-460 -1587 c3 -5 2 -10 -4 -10
-5 0 -13 5 -16 10 -3 6 -2 10 4 10 5 0 13 -4 16 -10z m175 -340 c0 -5 -5 -10
-11 -10 -5 0 -7 5 -4 10 3 6 8 10 11 10 2 0 4 -4 4 -10z m65 -150 c-3 -5 -2
-10 4 -10 6 0 17 -13 25 -28 13 -26 13 -28 -4 -28 -11 0 -17 2 -15 5 3 2 -1
11 -8 19 -9 13 -9 14 1 8 6 -4 12 -3 12 2 0 6 -7 13 -16 16 -13 5 -12 26 2 26
3 0 2 -4 -1 -10z m186 -351 c8 -15 6 -17 -6 -13 -9 4 -13 9 -11 12 3 3 -2 11
-12 19 -16 12 -16 13 1 7 10 -4 22 -15 28 -25z m455 -908 c-4 -5 -1 -11 6 -13
8 -3 6 -6 -4 -10 -11 -5 -15 -2 -13 10 5 23 4 22 11 22 3 0 3 -4 0 -9z m1499
-441 c-2 -11 3 -27 11 -35 24 -23 6 -38 -21 -18 -14 10 -25 22 -25 27 0 5 7 3
15 -4 11 -9 15 -9 15 -1 0 6 -7 14 -15 17 -14 6 -13 8 2 20 23 17 23 17 18 -6z
m-48 -82 c2 -17 0 -19 -7 -8 -5 8 -6 18 -4 22 8 12 10 10 11 -14z m38 11 c11
-16 1 -19 -13 -3 -7 8 -8 14 -3 14 5 0 13 -5 16 -11z m8 -67 c3 -4 -7 -8 -21
-8 -15 -1 -21 1 -14 3 10 4 10 8 0 21 -11 13 -10 14 9 4 12 -7 24 -15 26 -20z
m-36 -36 c0 -8 -6 -12 -15 -9 -11 5 -11 7 0 14 7 5 13 9 14 9 0 0 1 -6 1 -14z
m-73 -42 c3 -8 2 -12 -4 -9 -6 3 -10 10 -10 16 0 14 7 11 14 -7z m72 -1 c-3
-22 -38 -24 -43 -3 -4 13 -3 13 6 0 9 -12 11 -12 17 3 8 22 23 22 20 0z m-126
-183 c8 -5 12 -11 10 -14 -3 -2 -14 2 -24 10 -22 15 -10 19 14 4z m-83 -59 c0
-11 -5 -18 -9 -15 -4 3 -5 11 -1 19 7 21 12 19 10 -4z m75 -6 c3 0 10 -4 15
-8 4 -5 1 -7 -7 -5 -8 2 -15 -4 -15 -12 -1 -19 -25 -63 -31 -57 -3 2 0 17 6
33 9 27 9 28 -5 10 -8 -11 -15 -14 -15 -7 0 7 -5 9 -12 5 -8 -4 -10 -3 -5 2 5
5 14 9 20 9 7 1 11 6 10 13 -2 7 4 9 15 5 15 -6 16 -5 2 12 -13 17 -13 18 0
10 8 -6 18 -10 22 -10z m-98 -72 c4 -11 1 -11 -14 -3 -24 13 -25 17 -5 17 8 0
16 -6 19 -14z m-39 -62 c3 -5 2 -12 -3 -15 -5 -3 -9 1 -9 9 0 17 3 19 12 6z
m-26 -35 c9 -11 9 -16 -1 -22 -7 -4 -10 -4 -6 1 4 4 3 14 -3 22 -6 7 -9 13 -6
13 2 0 10 -6 16 -14z m27 -38 c4 -6 3 -8 -3 -5 -6 4 -14 -5 -17 -19 -4 -15 -9
-24 -12 -22 -5 6 13 58 20 58 3 0 8 -5 12 -12z m-46 -59 c0 -4 -13 -6 -29 -5
-16 0 -28 3 -26 6 5 8 55 7 55 -1z m-70 -59 c0 -5 -5 -10 -11 -10 -5 0 -7 5
-4 10 3 6 8 10 11 10 2 0 4 -4 4 -10z m36 -22 c4 -7 3 -8 -4 -4 -7 4 -12 2
-12 -3 0 -6 -5 -11 -11 -11 -8 0 -8 5 1 15 15 18 17 18 26 3z m-76 -61 c0 -2
-10 -12 -22 -23 l-23 -19 19 23 c18 21 26 27 26 19z m36 -19 c4 -7 3 -8 -4 -4
-7 4 -12 3 -12 -2 0 -6 -8 -13 -17 -16 -15 -6 -15 -4 2 14 21 23 22 24 31 8z
m-36 -43 c0 -2 -9 -3 -19 -2 -11 0 -18 5 -15 9 4 6 34 0 34 -7z m-22 -60 c-3
-3 -9 2 -12 12 -6 14 -5 15 5 6 7 -7 10 -15 7 -18z m-23 -35 c-3 -5 -12 -10
-18 -10 -7 0 -6 4 3 10 19 12 23 12 15 0z m-36 -13 c8 -10 7 -14 -2 -14 -8 0
-14 6 -14 14 0 7 1 13 2 13 2 0 8 -6 14 -13z m75 -6 c8 -12 -20 -22 -40 -14
-13 5 -13 7 -2 14 17 11 35 11 42 0z m-79 -30 c3 -5 2 -12 -3 -15 -5 -3 -9 1
-9 9 0 17 3 19 12 6z m-60 -120 c3 -5 0 -13 -6 -17 -7 -4 -9 -3 -5 4 3 5 0 13
-6 15 -9 4 -10 6 -1 6 6 1 14 -3 18 -8z"/>
<path d="M1344 4429 c-3 -6 -1 -16 5 -22 7 -7 5 -14 -7 -24 -15 -13 -15 -13 6
-3 26 13 29 3 5 -17 -16 -13 -16 -13 3 -4 12 6 25 7 29 3 4 -4 2 4 -6 18 -7
14 -12 29 -11 33 1 5 -2 6 -8 2 -5 -3 -10 -2 -10 4 0 5 6 12 13 14 9 4 9 6 0
6 -6 1 -15 -4 -19 -10z"/>
<path d="M3826 4383 c-5 -12 -4 -13 7 -5 8 7 17 9 20 5 4 -3 -1 -12 -11 -20
-16 -12 -16 -13 1 -7 13 5 16 2 11 -12 -4 -14 -3 -16 4 -5 11 15 21 4 17 -22
-2 -9 1 -15 6 -11 5 3 9 0 9 -7 0 -7 3 -9 6 -6 4 4 1 13 -5 21 -9 10 -9 16 -1
21 8 5 5 14 -9 29 -12 12 -19 25 -17 27 3 3 -3 5 -14 6 -10 1 -21 -5 -24 -14z
m55 -30 c13 -16 12 -17 -3 -4 -17 13 -22 21 -14 21 2 0 10 -8 17 -17z"/>
<path d="M1399 4313 c-10 -12 -10 -14 -1 -9 6 4 12 3 12 -3 0 -5 -3 -11 -7
-14 -5 -2 -3 -2 4 -1 7 2 15 -1 18 -6 4 -6 11 -10 18 -10 6 0 3 6 -8 13 -10 8
-15 19 -11 25 11 18 -11 23 -25 5z"/>
<path d="M1425 4250 c-11 -17 5 -32 21 -19 7 6 11 15 8 20 -7 12 -21 11 -29
-1z m25 -4 c0 -3 -4 -8 -10 -11 -5 -3 -10 -1 -10 4 0 6 5 11 10 11 6 0 10 -2
10 -4z"/>
<path d="M3988 4093 c6 -2 9 -10 6 -15 -4 -7 -2 -8 5 -4 13 9 5 26 -12 25 -9
0 -8 -2 1 -6z"/>
<path d="M1501 4074 c0 -11 3 -14 6 -6 3 7 2 16 -1 19 -3 4 -6 -2 -5 -13z"/>
<path d="M1525 4071 c2 -12 9 -29 15 -35 5 -7 7 -16 3 -20 -4 -4 1 -4 12 0 11
5 14 9 7 12 -7 2 -10 7 -7 12 3 4 -4 19 -15 31 l-19 24 4 -24z"/>
<path d="M4033 4019 c1 -22 18 -49 30 -49 10 0 2 25 -15 49 l-17 24 2 -24z"/>
<path d="M1515 4020 c-3 -5 -1 -10 4 -10 6 0 11 5 11 10 0 6 -2 10 -4 10 -3 0
-8 -4 -11 -10z"/>
<path d="M1555 4000 c-3 -5 -1 -10 4 -10 6 0 11 5 11 10 0 6 -2 10 -4 10 -3 0
-8 -4 -11 -10z"/>
<path d="M4051 3907 c2 -1 13 -9 24 -17 19 -14 19 -14 6 3 -7 9 -18 17 -24 17
-6 0 -8 -1 -6 -3z"/>
<path d="M4115 3800 c-3 -6 1 -7 9 -4 18 7 21 14 7 14 -6 0 -13 -4 -16 -10z"/>
<path d="M1750 3641 c0 -6 4 -12 8 -15 5 -3 9 1 9 9 0 8 -4 15 -9 15 -4 0 -8
-4 -8 -9z"/>
<path d="M4190 3646 c0 -2 7 -7 16 -10 8 -3 12 -2 9 4 -6 10 -25 14 -25 6z"/>
<path d="M1737 3601 c-4 -17 -3 -21 5 -13 5 5 8 16 6 23 -3 8 -7 3 -11 -10z"/>
<path d="M4271 3508 c-12 -20 -12 -21 0 -12 11 9 17 8 29 -4 8 -9 14 -18 13
-19 -6 -7 -2 -23 5 -23 4 0 8 9 9 20 1 11 -3 20 -9 20 -6 0 -8 3 -5 7 7 6 -11
33 -22 33 -3 0 -12 -10 -20 -22z"/>
<path d="M4270 3466 c0 -2 7 -7 16 -10 8 -3 12 -2 9 4 -6 10 -25 14 -25 6z"/>
<path d="M1825 3380 c-3 -6 1 -7 9 -4 18 7 21 14 7 14 -6 0 -13 -4 -16 -10z"/>
<path d="M567 3248 c-8 -13 -58 -97 -112 -188 -54 -91 -105 -173 -113 -182 -8
-10 -11 -18 -6 -18 5 0 4 -4 -1 -8 -9 -6 -90 -138 -142 -232 -50 -90 -125
-322 -139 -429 -3 -25 -7 -57 -10 -71 -7 -41 -7 -148 1 -159 3 -6 2 -11 -2
-11 -10 0 -9 -37 1 -61 4 -9 8 -39 9 -67 1 -29 5 -52 10 -52 12 0 8 -30 -5
-31 -7 0 -4 -4 7 -9 11 -5 14 -9 7 -9 -10 -1 -10 -5 2 -17 9 -8 17 -24 18 -35
0 -10 1 -25 2 -31 1 -7 6 -19 13 -26 7 -7 10 -19 7 -27 -4 -8 -1 -15 5 -15 6
0 11 -7 11 -16 0 -8 7 -22 15 -31 8 -8 12 -20 8 -26 -10 -16 -15 -55 -6 -42
10 13 36 19 29 6 -4 -5 -1 -11 6 -13 7 -3 5 -7 -6 -11 -12 -5 -15 -3 -11 6 4
6 0 4 -8 -5 -8 -10 -18 -14 -22 -10 -5 4 -5 1 -1 -6 4 -7 12 -10 17 -7 16 10
33 -6 18 -17 -11 -8 -10 -9 2 -5 9 3 22 0 28 -6 8 -8 11 -7 11 4 0 12 2 12 9
0 9 -15 8 -32 -4 -63 -4 -11 -3 -18 5 -18 6 0 9 -4 6 -8 -3 -5 1 -9 8 -9 7 0
13 6 13 13 0 7 -5 10 -10 7 -6 -4 -7 -1 -2 7 5 9 4 11 -3 6 -18 -11 -14 0 6
15 9 7 14 10 10 5 -4 -5 0 -15 8 -23 8 -8 11 -20 7 -26 -4 -7 -9 -20 -10 -30
-2 -14 1 -17 17 -12 12 4 20 2 20 -5 0 -6 -4 -8 -10 -5 -5 3 -10 1 -10 -4 0
-6 5 -11 11 -11 5 0 7 -4 4 -10 -4 -6 1 -7 12 -3 15 6 16 4 5 -9 -10 -13 -10
-17 4 -22 23 -9 31 -7 14 4 -8 5 -10 10 -5 11 39 6 54 5 49 -2 -2 -4 -12 -5
-22 -2 -15 6 -16 5 -2 -12 8 -10 10 -16 5 -13 -6 4 -15 -5 -22 -18 -6 -13 -8
-24 -3 -24 4 0 11 7 14 16 3 8 10 12 16 9 5 -3 10 1 10 9 0 8 3 17 8 19 4 3 7
-5 7 -18 0 -16 -5 -22 -17 -20 -10 2 -17 1 -17 -3 1 -4 0 -9 -1 -12 -8 -21 -6
-37 6 -37 10 0 11 4 3 14 -13 15 -14 14 26 19 21 2 25 0 15 -6 -8 -5 -18 -6
-23 -3 -7 4 18 -54 29 -66 2 -2 16 4 31 14 22 15 25 15 15 3 -9 -11 -10 -18
-2 -23 13 -8 13 -35 -1 -35 -6 0 -9 7 -6 15 4 8 1 17 -6 21 -7 4 -9 4 -5 -1 4
-4 3 -14 -3 -22 -9 -10 -8 -13 0 -13 7 0 9 -5 5 -12 -4 -7 -3 -8 4 -4 13 8 74
-23 67 -34 -2 -4 16 -16 40 -28 25 -12 45 -17 45 -12 0 6 -8 10 -17 10 -15 0
-16 2 -3 10 27 17 29 12 21 -44 0 -5 -8 -3 -16 4 -8 7 -15 9 -15 4 0 -5 -5 -2
-11 6 -7 10 -9 11 -7 2 2 -8 6 -12 9 -10 3 2 13 -3 21 -10 13 -10 18 -9 28 3
11 13 15 13 21 3 13 -19 10 -36 -2 -18 -9 13 -10 13 -6 0 2 -8 10 -14 16 -12
10 2 15 -11 12 -30 0 -5 3 -8 8 -8 6 0 9 9 8 20 -1 11 -5 20 -9 20 -4 0 -8 5
-8 11 0 5 4 8 9 5 5 -4 11 -3 14 1 2 5 2 2 0 -6 -2 -8 2 -11 11 -8 10 4 13 1
9 -9 -3 -7 0 -14 6 -14 6 0 11 5 11 10 0 6 5 10 11 10 6 0 7 -5 2 -12 -12 -20
-13 -42 -1 -49 15 -10 49 2 41 14 -3 5 -1 7 5 3 6 -3 12 -1 15 6 2 7 3 5 2 -4
-3 -20 20 -44 29 -29 3 5 0 12 -6 15 -7 3 -2 3 11 0 18 -5 22 -3 15 7 -7 12
-5 12 9 0 14 -11 18 -11 23 2 3 9 11 14 18 11 7 -3 21 7 30 21 9 14 22 23 28
19 6 -4 8 -3 5 3 -4 6 0 14 9 17 9 3 12 11 8 18 -5 8 -2 9 9 5 10 -3 17 -3 17
2 0 5 -9 11 -20 14 -13 3 -18 10 -14 21 3 9 10 13 15 10 5 -3 6 -10 3 -16 -4
-6 -2 -8 4 -5 5 4 9 15 8 24 -3 19 15 43 26 37 4 -2 10 1 14 7 5 8 3 9 -6 4
-8 -5 -11 -3 -8 6 3 8 11 13 18 11 11 -2 11 0 1 12 -8 10 -9 16 -1 21 16 10
12 35 -5 29 -8 -4 -15 -1 -15 6 0 6 5 8 10 5 6 -3 10 0 10 7 1 10 4 9 13 -2 7
-8 21 -16 32 -17 18 -2 18 -1 -2 9 -13 6 -23 15 -23 20 0 12 14 10 30 -4 12
-11 12 -10 2 4 -9 11 -10 18 -2 23 5 3 10 1 10 -4 0 -6 5 -11 11 -11 8 0 7 6
-2 16 -12 14 -9 20 16 41 17 14 25 22 18 19 -6 -4 -16 1 -20 9 -8 14 -12 13
-28 -5 -10 -11 -22 -20 -27 -20 -5 0 3 11 18 25 20 19 30 22 40 14 10 -8 13
-6 11 10 -1 16 -6 19 -27 15 l-25 -4 25 10 c13 6 27 16 31 21 4 7 9 4 12 -6 4
-9 3 -14 -2 -10 -14 8 -6 -24 9 -38 12 -10 12 -9 4 3 -8 11 -5 23 11 47 12 18
26 29 30 25 5 -4 5 -2 2 4 -8 13 16 37 26 27 4 -3 7 -1 7 4 0 6 -6 14 -12 17
-9 3 -4 12 14 28 l27 23 -25 1 c-18 2 -24 -2 -20 -12 8 -21 -2 -17 -14 6 -6
11 -7 20 -3 19 21 -4 33 2 27 13 -4 7 -3 8 5 4 6 -4 9 -13 5 -19 -3 -7 2 -3
11 8 9 11 21 20 27 20 19 0 17 35 -3 48 -10 6 -18 21 -18 32 1 17 2 17 6 2 2
-9 9 -14 15 -11 6 4 8 3 5 -2 -3 -6 2 -15 12 -21 14 -9 18 -8 18 3 0 7 -4 11
-9 8 -9 -6 -11 30 -1 39 3 4 13 1 22 -6 14 -11 14 -10 2 6 -12 15 -12 20 -2
27 11 6 11 8 0 12 -9 3 -7 10 9 26 12 12 17 22 11 22 -6 0 -9 6 -7 13 3 6 10
12 16 12 5 0 14 4 19 9 5 5 3 6 -4 2 -17 -9 -17 6 0 24 10 12 9 12 -6 0 -24
-18 -48 -65 -39 -75 4 -5 2 -5 -4 -2 -7 4 -10 -2 -8 -18 1 -14 -2 -23 -7 -20
-5 4 -6 0 -3 -8 3 -8 -3 -20 -12 -28 -10 -8 -15 -9 -11 -2 4 6 4 13 0 16 -5 2
-2 2 5 1 6 -2 12 1 12 6 0 6 -5 10 -12 10 -6 0 -4 6 6 13 15 11 17 17 7 35
-10 18 -9 21 4 16 10 -4 15 0 15 11 0 9 -4 13 -10 10 -5 -3 -10 -1 -10 5 0 7
7 10 15 6 9 -3 15 0 15 8 0 7 11 19 25 26 16 8 21 16 14 20 -6 4 -10 10 -10
14 1 3 1 14 1 24 0 14 -2 15 -10 2 -6 -9 -5 -17 3 -23 8 -6 6 -7 -5 -3 -12 3
-18 0 -18 -9 0 -9 6 -12 18 -9 14 5 15 4 2 -5 -8 -6 -18 -11 -22 -11 -12 0
-10 38 2 45 6 4 8 10 5 15 -3 4 2 10 10 14 8 3 19 -3 25 -12 9 -15 10 -15 8 3
-2 12 2 19 10 17 8 -1 11 2 7 8 -3 6 -11 8 -16 5 -5 -4 -9 -1 -9 4 0 6 7 11
15 11 8 0 15 4 15 10 0 5 -8 7 -17 3 -14 -5 -15 -3 -6 7 6 7 9 20 5 29 -5 14
-3 14 10 3 13 -10 18 -10 24 -1 4 7 3 9 -4 5 -10 -6 -26 10 -27 26 0 3 -4 10
-8 15 -5 4 -7 3 -5 -2 2 -6 0 -11 -5 -12 -16 -6 -19 -2 -7 11 6 8 18 12 26 9
8 -3 14 -1 14 4 0 12 -38 14 -45 2 -8 -12 -25 -12 -25 2 0 5 4 8 9 5 5 -3 14
1 21 9 7 8 16 12 21 9 5 -3 6 2 3 11 -5 11 -2 14 12 9 18 -5 18 -5 1 6 -13 8
-15 15 -7 30 14 26 13 33 -5 27 -24 -10 -44 46 -22 60 6 3 7 1 3 -5 -4 -7 -2
-12 3 -12 6 0 10 -5 8 -11 -1 -6 4 -14 11 -16 14 -6 16 13 2 22 -5 3 -10 15
-10 26 0 13 4 18 12 13 7 -4 8 -3 4 4 -4 7 -1 12 6 12 7 0 1 8 -14 17 -15 10
-30 24 -33 32 -4 11 -2 11 8 3 10 -9 18 -8 33 4 18 14 18 14 -5 3 -21 -10 -23
-9 -18 5 4 9 2 15 -4 13 -7 -1 -12 19 -13 50 0 28 -4 55 -8 59 -15 14 -8 26 7
14 13 -11 14 -10 9 4 -3 9 -10 16 -16 16 -5 0 -6 5 -3 10 4 6 11 7 17 4 7 -4
8 -2 4 5 -4 6 -11 9 -16 6 -4 -3 -10 4 -13 15 -3 11 0 20 6 20 7 0 4 5 -6 11
-14 8 -15 14 -6 31 8 15 8 19 0 14 -11 -7 -14 1 -14 37 0 9 -4 17 -10 17 -5 0
-4 7 3 15 11 13 10 14 -6 9 -10 -4 -16 -4 -12 1 4 4 1 20 -8 36 -8 16 -12 29
-9 29 3 0 -2 11 -11 25 -9 14 -12 25 -8 25 5 0 4 4 -1 8 -6 4 -17 21 -25 37
-43 89 -134 210 -224 301 -102 101 -177 156 -318 233 l-77 42 -14 -23z m792
-1117 c9 -2 -23 -31 -33 -30 -6 0 -6 3 2 6 9 4 10 8 2 18 -11 13 -8 13 29 6z
m-6 -127 c-5 -14 -33 -27 -41 -19 -3 3 0 5 7 5 7 0 11 6 8 13 -3 7 3 13 13 13
10 0 16 -6 13 -12z m-13 -39 c-7 -8 -17 -15 -23 -15 -6 0 -2 7 9 15 25 19 30
19 14 0z m5 -105 c0 -9 -3 -20 -7 -25 -3 -6 -4 -19 -3 -31 1 -16 -3 -20 -17
-16 -10 2 -21 8 -24 13 -3 5 2 6 11 3 11 -5 14 -2 9 10 -3 9 -11 13 -17 9 -6
-3 -7 -1 -3 5 4 6 13 9 21 6 17 -7 14 24 -5 36 -9 5 -5 8 12 7 15 -1 24 -8 23
-17z m-55 -80 c0 -5 -5 -10 -11 -10 -5 0 -7 5 -4 10 3 6 8 10 11 10 2 0 4 -4
4 -10z m-6 -86 c3 -8 2 -12 -4 -9 -6 3 -10 10 -10 16 0 14 7 11 14 -7z m-24
-95 c0 -14 -17 -10 -23 5 -4 10 -1 13 9 9 7 -3 14 -9 14 -14z m-30 -37 c0 -5
-7 -9 -15 -9 -8 0 -12 4 -9 9 3 4 9 8 15 8 5 0 9 -4 9 -8z m-40 -22 c0 -5 -5
-10 -11 -10 -5 0 -7 5 -4 10 3 6 8 10 11 10 2 0 4 -4 4 -10z m23 -25 c-3 -9
-8 -14 -10 -11 -3 3 -2 9 2 15 9 16 15 13 8 -4z m36 -35 c4 0 8 -7 8 -15 0 -8
-3 -13 -5 -10 -3 3 -10 1 -16 -4 -7 -6 -19 -4 -31 6 -16 12 -16 14 -3 10 17
-6 35 7 21 16 -5 2 -2 2 5 0 8 -1 17 -3 21 -3z m-59 -42 c0 -6 -3 -8 -7 -5 -3
4 -11 2 -18 -3 -8 -7 -12 -6 -12 3 0 7 9 14 19 14 10 1 18 -3 18 -9z m-985
-17 c10 -17 -12 -21 -25 -6 -10 12 -10 15 3 15 9 0 18 -4 22 -9z m930 -1 c-3
-5 -12 -10 -18 -10 -7 0 -6 4 3 10 19 12 23 12 15 0z m31 -22 c4 -7 3 -8 -4
-4 -7 4 -12 2 -12 -5 0 -7 -3 -10 -6 -6 -6 5 3 27 11 27 2 0 7 -5 11 -12z m14
-28 c-12 -8 -13 -11 -1 -19 10 -6 10 -10 1 -16 -6 -4 -20 -21 -31 -39 -16 -26
-19 -28 -20 -11 -1 11 0 24 1 30 1 5 2 18 3 27 1 12 5 14 11 8 15 -15 30 -12
17 4 -9 11 -9 15 1 19 22 9 34 7 18 -3z m-65 -10 c3 -6 -1 -7 -9 -4 -18 7 -21
14 -7 14 6 0 13 -4 16 -10z m-45 -36 c0 -8 -19 -13 -24 -6 -3 5 1 9 9 9 8 0
15 -2 15 -3z m34 -24 c-6 -6 -15 -5 -24 1 -13 9 -12 10 3 5 9 -3 17 0 17 6 0
6 3 8 7 5 4 -4 2 -12 -3 -17z m-817 -15 c0 -8 -6 -16 -14 -19 -11 -4 -11 -1
-3 14 13 24 17 25 17 5z m782 2 c8 -10 7 -14 -2 -14 -8 0 -14 6 -14 14 0 7 1
13 2 13 2 0 8 -6 14 -13z m-739 -57 c0 -5 -7 -7 -15 -4 -8 4 -15 8 -15 10 0 2
7 4 15 4 8 0 15 -4 15 -10z m720 -4 c0 -2 -7 -7 -16 -10 -8 -3 -12 -2 -9 4 6
10 25 14 25 6z m-69 -39 c-10 -9 -11 -8 -5 6 3 10 9 15 12 12 3 -3 0 -11 -7
-18z m90 -6 c-12 -11 -22 -22 -22 -25 2 -14 -13 -5 -15 9 -1 8 1 13 6 10 4 -2
15 4 25 15 10 11 20 18 23 15 3 -3 -5 -14 -17 -24z m-54 -17 c-3 -3 -12 -4
-19 -1 -8 3 -5 6 6 6 11 1 17 -2 13 -5z m-52 -14 c3 -6 -1 -7 -9 -4 -18 7 -21
14 -7 14 6 0 13 -4 16 -10z m-550 -10 c3 -6 -1 -7 -9 -4 -18 7 -21 14 -7 14 6
0 13 -4 16 -10z m583 -15 c-3 -3 -9 2 -12 12 -6 14 -5 15 5 6 7 -7 10 -15 7
-18z m27 15 c3 -5 1 -10 -4 -10 -6 0 -11 5 -11 10 0 6 2 10 4 10 3 0 8 -4 11
-10z m-49 -22 c3 -4 -1 -5 -10 -4 -8 1 -18 5 -22 8 -3 4 1 5 10 4 8 -1 18 -5
22 -8z m-45 -15 c13 -16 12 -17 -3 -4 -10 7 -18 15 -18 17 0 8 8 3 21 -13z
m-517 -10 c10 -25 -10 -39 -23 -15 -10 19 -6 32 10 32 4 0 10 -8 13 -17z m43
1 c-3 -3 -12 -4 -19 -1 -8 3 -5 6 6 6 11 1 17 -2 13 -5z m547 -16 c5 2 4 -4
-4 -12 -7 -9 -9 -16 -5 -16 4 0 -4 -15 -18 -34 -15 -18 -23 -37 -19 -41 4 -5
2 -5 -5 -1 -13 7 -37 -27 -26 -38 14 -14 7 -32 -24 -63 -18 -17 -33 -27 -33
-22 0 6 -3 8 -7 6 -5 -3 -17 0 -28 4 -18 9 -18 9 2 5 31 -6 38 10 18 42 l-16
27 20 -22 c23 -27 33 -29 24 -5 -5 14 -3 13 10 -3 14 -17 16 -18 17 -3 0 9 -4
19 -10 23 -5 3 0 15 12 27 17 17 18 22 7 30 -11 8 -11 9 2 5 9 -3 23 3 32 14
12 13 13 19 4 20 -6 0 -1 5 12 10 19 8 21 12 11 24 -7 8 -9 15 -4 15 4 0 -1 7
-12 16 -18 14 -17 14 6 2 14 -7 29 -11 34 -10z m-527 -12 c-11 -9 -14 -17 -8
-20 6 -4 8 -13 4 -21 -3 -9 1 -15 11 -15 9 0 16 -4 16 -8 0 -16 37 -52 45 -44
5 4 5 2 1 -5 -9 -16 -34 -6 -41 18 -4 11 -11 17 -16 14 -5 -4 -12 1 -15 9 -3
9 -11 13 -16 10 -6 -4 -5 2 1 14 8 15 8 23 0 28 -9 5 -6 11 6 21 11 7 21 13
24 13 3 0 -2 -7 -12 -14z m483 -11 c7 -9 8 -15 2 -15 -5 0 -12 7 -16 15 -3 8
-4 15 -2 15 2 0 9 -7 16 -15z m-434 -46 c2 -17 0 -28 -3 -25 -3 3 -7 19 -8 36
-1 17 0 28 3 25 3 -3 7 -19 8 -36z m405 3 c-7 -2 -18 1 -23 6 -8 8 -4 9 13 5
13 -4 18 -8 10 -11z m-361 -8 c0 -8 -19 -13 -24 -6 -3 5 1 9 9 9 8 0 15 -2 15
-3z m316 -20 c-4 -21 -2 -25 12 -19 13 5 14 3 5 -6 -15 -15 -32 -4 -28 19 2 9
4 20 4 25 1 4 3 7 6 7 3 0 3 -12 1 -26z m-312 -8 c-3 -9 -12 -12 -22 -9 -15 6
-9 11 25 22 1 1 0 -5 -3 -13z m52 -10 c2 -14 -20 -16 -33 -2 -4 4 -1 6 7 4 9
-2 14 3 12 12 -2 8 0 11 4 7 4 -4 9 -14 10 -21z m1 -58 c-3 -7 -5 -2 -5 12 0
14 2 19 5 13 2 -7 2 -19 0 -25z m199 12 c0 -12 -4 -16 -9 -11 -5 5 -6 14 -3
20 10 15 12 14 12 -9z m-120 -2 c4 -6 3 -8 -4 -4 -6 3 -15 -2 -21 -11 -6 -10
-11 -13 -11 -7 0 9 19 34 26 34 2 0 6 -5 10 -12z m64 -32 c0 -2 -7 -7 -16 -10
-8 -3 -12 -2 -9 4 6 10 25 14 25 6z m-45 -48 c-3 -30 -3 -30 -15 -23 -7 4 -7
13 0 26 14 25 18 24 15 -3z"/>
<path d="M1137 1319 c-4 -16 -3 -18 9 -8 7 6 11 15 8 20 -8 13 -11 11 -17 -12z"/>
<path d="M396 1087 c3 -10 9 -15 12 -12 3 3 0 11 -7 18 -10 9 -11 8 -5 -6z"/>
<path d="M910 930 c0 -5 5 -10 11 -10 5 0 7 5 4 10 -3 6 -8 10 -11 10 -2 0 -4
-4 -4 -10z"/>
<path d="M879 873 c-13 -16 -12 -17 4 -4 9 7 17 15 17 17 0 8 -8 3 -21 -13z"/>
<path d="M1956 3138 c3 -5 10 -6 15 -3 13 9 11 12 -6 12 -8 0 -12 -4 -9 -9z"/>
<path d="M4481 3141 c-10 -7 -11 -12 -1 -27 8 -14 10 -14 7 -3 -3 9 0 22 6 28
13 13 7 14 -12 2z"/>
<path d="M4513 3073 c-7 -3 -13 -10 -13 -15 0 -6 3 -8 7 -5 3 4 12 2 19 -4 7
-6 14 -6 18 -1 8 13 -15 31 -31 25z"/>
<path d="M2053 2966 c0 -7 6 -13 14 -13 7 0 13 4 13 8 0 4 -6 9 -13 12 -8 3
-14 0 -14 -7z"/>
<path d="M4510 2965 c0 -7 30 -13 34 -7 3 4 -4 9 -15 9 -10 1 -19 0 -19 -2z"/>
<path d="M2095 2951 c3 -6 0 -11 -7 -11 -8 0 -7 -4 4 -11 11 -6 15 -16 11 -26
-6 -15 -5 -16 9 -3 10 9 12 17 6 21 -7 4 -6 8 1 10 6 2 2 10 -10 17 -12 8 -18
9 -14 3z"/>
<path d="M2156 2821 c-19 -7 -18 -8 5 -14 19 -6 21 -9 9 -16 -8 -5 -18 -7 -24
-4 -5 3 -6 1 -2 -5 4 -6 14 -8 23 -5 12 5 14 3 8 -8 -8 -12 -6 -12 8 0 16 12
16 16 2 31 -8 9 -12 20 -8 23 8 8 4 8 -21 -2z"/>
<path d="M4615 2801 c-3 -5 -2 -12 3 -15 5 -3 9 1 9 9 0 17 -3 19 -12 6z"/>
<path d="M4652 2794 c2 -9 14 -24 28 -32 l25 -16 -23 23 c-12 12 -20 26 -17
32 4 5 1 9 -5 9 -6 0 -10 -7 -8 -16z"/>
<path d="M2194 2728 c-4 -7 -3 -8 4 -4 7 4 12 2 12 -3 0 -6 -4 -11 -10 -11 -5
0 -10 -5 -10 -11 0 -8 4 -9 13 0 8 6 17 7 22 3 4 -4 2 3 -4 16 -13 25 -17 27
-27 10z"/>
<path d="M4673 2695 c0 -7 6 -11 14 -8 7 3 13 6 13 8 0 2 -6 5 -13 8 -8 3 -14
-1 -14 -8z"/>
<path d="M2210 2682 c0 -4 10 -9 22 -9 18 -2 20 0 8 7 -18 12 -30 13 -30 2z"/>
<path d="M4730 2673 c0 -7 -7 -10 -17 -6 -15 5 -14 3 2 -10 11 -9 16 -17 10
-17 -5 0 0 -7 12 -15 13 -9 20 -22 17 -30 -4 -8 -2 -15 4 -15 13 0 10 24 -7
44 -7 8 -10 19 -8 24 3 4 2 14 -4 22 -5 10 -9 11 -9 3z"/>
<path d="M2233 2641 c0 -11 5 -18 9 -15 4 3 5 11 1 19 -7 21 -12 19 -10 -4z"/>
<path d="M2242 2600 c-9 -15 -9 -21 1 -26 6 -4 9 -4 5 1 -4 4 -3 14 4 22 6 7
9 15 7 18 -3 2 -10 -4 -17 -15z"/>
<path d="M4719 2593 c-13 -16 -12 -17 4 -4 16 13 21 21 13 21 -2 0 -10 -8 -17
-17z"/>
<path d="M2265 2590 c-3 -6 1 -13 10 -16 12 -5 13 -9 4 -20 -6 -8 -8 -14 -4
-14 17 0 33 35 23 47 -13 16 -25 17 -33 3z m30 -10 c3 -6 -1 -7 -9 -4 -18 7
-21 14 -7 14 6 0 13 -4 16 -10z"/>
<path d="M4726 2558 c3 -5 10 -6 15 -3 13 9 11 12 -6 12 -8 0 -12 -4 -9 -9z"/>
<path d="M4759 2553 c-13 -16 -12 -17 4 -4 16 13 21 21 13 21 -2 0 -10 -8 -17
-17z"/>
<path d="M2329 2506 c-1 -3 -2 -9 -3 -13 -1 -5 -5 -13 -9 -20 -4 -6 -3 -14 2
-17 10 -7 24 10 27 31 2 13 -15 30 -17 19z"/>
<path d="M4790 2442 c0 -5 7 -9 15 -9 8 0 12 4 9 9 -3 4 -9 8 -15 8 -5 0 -9
-4 -9 -8z"/>
<path d="M4836 2434 c-8 -20 0 -32 14 -18 5 5 5 15 1 22 -6 11 -10 10 -15 -4z"/>
<path d="M2376 2382 c-3 -5 8 -23 24 -41 17 -17 30 -35 30 -41 0 -5 5 -10 11
-10 6 0 1 13 -10 29 -11 15 -18 30 -16 33 3 3 -3 13 -14 22 -10 10 -22 13 -25
8z m25 -19 c13 -16 12 -17 -3 -4 -17 13 -22 21 -14 21 2 0 10 -8 17 -17z"/>
<path d="M4853 2335 c0 -8 4 -12 9 -9 5 3 6 10 3 15 -9 13 -12 11 -12 -6z"/>
<path d="M2370 2321 c0 -6 4 -13 10 -16 6 -3 7 1 4 9 -7 18 -14 21 -14 7z"/>
<path d="M4875 2300 c3 -5 8 -10 11 -10 2 0 4 5 4 10 0 6 -5 10 -11 10 -5 0
-7 -4 -4 -10z"/>
<path d="M1355 2290 c-4 -6 -10 -8 -14 -6 -4 3 -8 -1 -8 -9 0 -13 4 -12 19 2
18 16 22 23 14 23 -3 0 -8 -5 -11 -10z"/>
<path d="M4945 2241 c-6 -11 13 -26 22 -17 4 3 1 6 -6 6 -7 0 -9 5 -6 10 3 6
4 10 1 10 -3 0 -7 -4 -11 -9z"/>
<path d="M1335 2210 c-3 -6 1 -7 9 -4 18 7 21 14 7 14 -6 0 -13 -4 -16 -10z"/>
<path d="M2476 2191 c-17 -6 -17 -8 -4 -14 10 -3 19 0 22 9 3 8 4 14 3 13 -1
0 -11 -4 -21 -8z"/>
<path d="M1393 2155 c0 -8 4 -12 9 -9 5 3 6 10 3 15 -9 13 -12 11 -12 -6z"/>
<path d="M2504 2124 c-18 -14 -18 -15 4 -4 12 6 22 13 22 15 0 8 -5 6 -26 -11z"/>
<path d="M5020 2039 c0 -5 5 -9 11 -9 5 0 7 -6 3 -12 -5 -9 -2 -8 9 1 10 8 15
16 12 19 -10 10 -35 11 -35 1z"/>
<path d="M5050 1998 c0 -4 5 -8 10 -8 6 0 9 -5 8 -11 -2 -6 4 -14 12 -16 10
-3 11 -2 4 4 -6 4 -10 15 -9 24 2 9 -4 16 -11 16 -8 0 -14 -4 -14 -9z"/>
<path d="M6375 1980 c-3 -5 -1 -10 4 -10 6 0 11 5 11 10 0 6 -2 10 -4 10 -3 0
-8 -4 -11 -10z"/>
<path d="M5073 1915 c0 -7 6 -11 14 -8 7 3 13 6 13 8 0 2 -6 5 -13 8 -8 3 -14
-1 -14 -8z"/>
<path d="M6375 1921 c-3 -5 -2 -12 3 -15 5 -3 9 1 9 9 0 17 -3 19 -12 6z"/>
<path d="M2598 1903 c7 -3 16 -2 19 1 4 3 -2 6 -13 5 -11 0 -14 -3 -6 -6z"/>
<path d="M2625 1892 c-13 -9 -13 -27 -1 -39 5 -5 6 -3 2 5 -5 8 -1 12 11 12
14 0 15 2 4 9 -11 7 -11 9 0 14 8 3 10 6 4 6 -5 0 -15 -3 -20 -7z"/>
<path d="M5110 1880 c23 -20 30 -24 30 -16 0 9 -32 36 -42 36 -6 0 -1 -9 12
-20z"/>
<path d="M6324 1850 c0 -13 4 -16 10 -10 7 7 7 13 0 20 -6 6 -10 3 -10 -10z"/>
<path d="M2666 1762 c-3 -5 1 -9 9 -9 8 0 12 4 9 9 -3 4 -7 8 -9 8 -2 0 -6 -4
-9 -8z"/>
<path d="M3736 1722 c-11 -14 -14 -22 -8 -18 6 4 21 2 33 -4 18 -10 19 -9 11
7 -5 10 -11 23 -13 30 -2 6 -12 0 -23 -15z"/>
<path d="M6248 1729 c-15 -16 -15 -18 0 -24 9 -3 13 -3 9 1 -4 4 -2 13 5 21
17 20 5 22 -14 2z"/>
<path d="M5205 1720 c-3 -5 1 -10 10 -10 9 0 13 5 10 10 -3 6 -8 10 -10 10 -2
0 -7 -4 -10 -10z"/>
<path d="M5206 1683 c11 -8 18 -23 16 -36 -3 -21 -2 -20 11 3 16 28 8 43 -24
45 -21 2 -21 1 -3 -12z"/>
<path d="M5273 1579 c-2 -19 11 -26 21 -10 3 5 0 14 -7 19 -10 8 -13 6 -14 -9z"/>
<path d="M5273 1534 c0 -7 7 -10 15 -6 10 3 13 1 8 -6 -4 -7 -2 -12 6 -12 9 0
9 -3 -2 -10 -8 -5 -10 -10 -5 -10 6 0 17 5 25 10 9 6 10 10 3 10 -6 0 -14 8
-17 18 -7 21 -33 26 -33 6z"/>
<path d="M108 1533 c6 -2 9 -10 5 -16 -3 -7 -3 -9 2 -5 4 4 15 2 24 -4 10 -8
9 -4 -3 10 -11 12 -24 22 -30 21 -6 0 -6 -3 2 -6z"/>
<path d="M117 1480 c-3 -11 -2 -22 2 -24 4 -3 8 6 9 20 2 29 -4 31 -11 4z"/>
<path d="M2810 1480 c0 -5 5 -10 11 -10 5 0 7 5 4 10 -3 6 -8 10 -11 10 -2 0
-4 -4 -4 -10z"/>
<path d="M6095 1460 c-9 -10 -17 -25 -19 -33 -1 -8 -7 -21 -13 -29 -10 -11 -7
-17 10 -28 20 -12 21 -12 9 3 -8 9 -10 22 -6 28 5 9 10 7 16 -7 6 -15 7 -13 3
8 -3 14 -2 34 1 42 5 14 9 14 22 4 10 -8 13 -9 9 -1 -4 6 -2 13 5 15 8 3 6 6
-4 10 -9 4 -23 -1 -33 -12z"/>
<path d="M5330 1439 c-13 -9 -12 -10 2 -5 25 8 38 -21 39 -89 0 -16 2 -17 9
-5 9 13 10 13 11 0 1 -8 1 -21 0 -28 -1 -7 5 -15 13 -18 9 -3 14 -10 11 -14
-3 -4 1 -10 8 -13 17 -6 16 25 -1 46 -7 7 -9 17 -5 20 3 4 -1 9 -10 13 -9 3
-14 11 -11 18 3 7 -2 19 -10 26 -9 7 -14 16 -11 20 2 4 -3 14 -13 23 -13 12
-21 13 -32 6z m58 -74 c-3 -3 -9 2 -12 12 -6 14 -5 15 5 6 7 -7 10 -15 7 -18z
m32 -60 c11 -13 10 -14 -4 -9 -9 3 -16 10 -16 15 0 13 6 11 20 -6z"/>
<path d="M1250 1419 c0 -5 5 -7 10 -4 6 3 10 8 10 11 0 2 -4 4 -10 4 -5 0 -10
-5 -10 -11z"/>
<path d="M2851 1416 c2 -2 15 -9 29 -15 24 -11 24 -11 6 3 -16 13 -49 24 -35
12z"/>
<path d="M5341 1404 c0 -11 3 -14 6 -6 3 7 2 16 -1 19 -3 4 -6 -2 -5 -13z"/>
<path d="M1240 1380 c-9 -6 -10 -10 -3 -10 6 0 15 5 18 10 8 12 4 12 -15 0z"/>
<path d="M178 1373 c6 -3 10 -9 6 -14 -3 -5 0 -9 5 -9 6 0 14 0 18 0 4 0 8 5
9 12 1 8 -10 14 -25 14 -14 1 -20 -1 -13 -3z"/>
<path d="M3557 1373 c-4 -3 -7 -11 -7 -17 0 -6 5 -5 12 2 6 6 9 14 7 17 -3 3
-9 2 -12 -2z"/>
<path d="M176 1322 c-3 -5 1 -9 9 -9 8 0 12 4 9 9 -3 4 -7 8 -9 8 -2 0 -6 -4
-9 -8z"/>
<path d="M2929 1326 c-1 -3 -2 -10 -3 -15 0 -5 -4 -13 -8 -17 -11 -11 -10 -24
3 -24 5 0 7 5 3 11 -4 7 -1 10 6 7 12 -4 19 -22 22 -55 1 -7 5 -10 10 -7 13 8
10 -10 -4 -25 -7 -8 -8 -12 -3 -9 6 3 19 -4 30 -15 l20 -20 -20 6 c-18 7 -19
6 -3 -6 10 -8 14 -17 10 -21 -4 -4 0 -6 8 -4 10 2 14 -3 12 -17 -2 -11 -1 -17
3 -13 12 11 13 43 2 57 -6 7 -12 20 -13 28 -2 8 -12 25 -23 37 -12 13 -18 26
-14 29 3 4 1 7 -6 7 -7 0 -10 4 -6 9 3 5 0 13 -6 16 -5 4 -8 13 -5 21 3 7 1
16 -4 19 -6 4 -11 4 -11 1z m65 -132 c5 -14 4 -15 -9 -4 -17 14 -19 20 -6 20
5 0 12 -7 15 -16z"/>
<path d="M189 1283 c-13 -16 -12 -17 4 -4 9 7 17 15 17 17 0 8 -8 3 -21 -13z"/>
<path d="M230 1269 c0 -5 -5 -7 -12 -3 -7 4 -8 3 -4 -5 6 -9 11 -9 22 0 17 14
18 19 4 19 -5 0 -10 -5 -10 -11z"/>
<path d="M6033 1255 c0 -8 4 -12 9 -9 5 3 6 10 3 15 -9 13 -12 11 -12 -6z"/>
<path d="M1140 1246 c0 -2 7 -6 15 -10 8 -3 15 -1 15 4 0 6 -7 10 -15 10 -8 0
-15 -2 -15 -4z"/>
<path d="M5973 1226 c-3 -6 -3 -8 2 -4 4 4 13 3 20 -2 8 -7 12 -5 12 3 0 16
-25 18 -34 3z"/>
<path d="M5434 1208 c-4 -7 -3 -8 4 -4 7 4 12 3 12 -2 0 -6 7 -12 14 -15 10
-4 13 -1 10 8 -7 18 -32 27 -40 13z"/>
<path d="M270 1180 c0 -6 7 -10 15 -10 8 0 15 2 15 4 0 2 -7 6 -15 10 -8 3
-15 1 -15 -4z"/>
<path d="M5453 1165 c0 -8 4 -12 9 -9 5 3 6 10 3 15 -9 13 -12 11 -12 -6z"/>
<path d="M5979 1178 c-5 -18 -6 -38 -1 -34 7 8 12 36 6 36 -2 0 -4 -1 -5 -2z"/>
<path d="M5915 1130 c-3 -5 -3 -10 1 -10 4 0 0 -8 -9 -17 -8 -10 -17 -25 -19
-33 -2 -8 -10 -21 -18 -28 -9 -8 -9 -11 -2 -7 8 4 20 -1 28 -11 14 -18 14 -18
4 4 -10 20 2 34 13 15 5 -11 0 8 -9 31 -6 15 -4 17 7 10 17 -10 43 -15 34 -6
-4 4 -11 8 -16 8 -19 3 -19 4 -7 18 7 8 18 11 23 8 6 -3 4 2 -4 11 -16 20 -18
20 -26 7z"/>
<path d="M1026 1064 c-5 -14 -4 -15 9 -4 17 14 19 20 6 20 -5 0 -12 -7 -15
-16z"/>
<path d="M3416 1042 c-2 -4 0 -14 6 -22 8 -12 9 -12 5 2 -3 9 -1 19 6 22 9 3
9 5 0 5 -6 1 -14 -3 -17 -7z"/>
<path d="M3050 1016 c0 -2 8 -10 18 -17 15 -13 16 -12 3 4 -13 16 -21 21 -21
13z"/>
<path d="M3365 1012 c-22 -15 -14 -31 13 -26 31 6 43 14 20 14 -9 0 -18 4 -20
10 -1 5 -7 6 -13 2z"/>
<path d="M5570 981 c0 -5 10 -13 21 -16 17 -6 19 -9 8 -16 -9 -6 -10 -9 -2 -9
23 0 22 18 -2 34 -14 9 -25 12 -25 7z"/>
<path d="M3380 959 c0 -5 5 -7 10 -4 6 3 10 8 10 11 0 2 -4 4 -10 4 -5 0 -10
-5 -10 -11z"/>
<path d="M5822 954 c9 -9 21 -15 27 -13 6 2 -2 10 -17 17 -25 11 -25 11 -10
-4z"/>
<path d="M496 927 c3 -10 9 -15 12 -12 3 3 0 11 -7 18 -10 9 -11 8 -5 -6z"/>
<path d="M3102 916 c-1 -16 1 -18 8 -6 9 14 15 7 11 -14 -1 -5 5 -3 14 4 11 9
13 16 6 23 -19 19 -37 15 -39 -7z"/>
<path d="M5588 923 c7 -3 16 -2 19 1 4 3 -2 6 -13 5 -11 0 -14 -3 -6 -6z"/>
<path d="M3166 893 c-4 -5 -12 -8 -18 -8 -6 0 -12 -8 -14 -18 -2 -15 0 -16 12
-6 12 10 17 10 27 0 7 -7 8 -12 2 -11 -22 5 -27 -1 -14 -17 11 -13 11 -17 2
-20 -7 -3 -13 -10 -13 -16 0 -5 3 -7 6 -4 4 3 16 2 27 -4 14 -8 18 -8 13 0 -6
10 6 15 27 12 4 0 7 4 7 9 0 6 4 10 9 10 14 0 7 -44 -9 -58 -12 -10 -10 -10
13 0 21 9 26 16 21 32 -6 18 -5 19 10 7 9 -7 16 -9 16 -4 0 17 -54 42 -72 32
-9 -5 -24 -6 -33 -3 -14 6 -14 8 0 24 14 16 14 18 0 24 -9 3 -13 10 -10 16 7
12 2 13 -9 3z m24 -83 c0 -5 -5 -10 -11 -10 -5 0 -7 5 -4 10 3 6 8 10 11 10 2
0 4 -4 4 -10z"/>
<path d="M5633 885 c0 -8 4 -15 9 -15 4 0 8 7 8 15 0 8 -4 15 -8 15 -5 0 -9
-7 -9 -15z"/>
<path d="M5590 886 c0 -2 7 -6 15 -10 8 -3 15 -1 15 4 0 6 -7 10 -15 10 -8 0
-15 -2 -15 -4z"/>
<path d="M656 846 c3 -9 13 -16 22 -16 8 0 13 1 11 3 -2 1 -12 9 -22 16 -15
12 -17 12 -11 -3z"/>
<path d="M890 819 c0 -5 5 -7 10 -4 6 3 10 8 10 11 0 2 -4 4 -10 4 -5 0 -10
-5 -10 -11z"/>
<path d="M843 804 c-5 -13 -7 -13 -14 -2 -7 10 -9 11 -9 0 0 -7 -4 -11 -9 -7
-5 3 -13 0 -16 -5 -5 -8 -12 -6 -24 4 -11 10 -21 12 -31 6 -10 -7 -11 -10 -2
-10 6 0 13 1 15 3 6 5 35 -29 30 -36 -3 -5 4 -3 16 5 12 7 21 16 21 20 0 3 11
5 25 4 13 -2 22 0 20 5 -3 4 0 9 7 11 7 3 5 7 -5 11 -12 4 -20 1 -24 -9z"/>
<path d="M3206 777 c-4 -18 -4 -18 15 -1 23 21 23 21 5 21 -8 0 -17 -9 -20
-20z"/>
<path d="M736 767 c3 -10 9 -15 12 -12 3 3 0 11 -7 18 -10 9 -11 8 -5 -6z"/>
<path d="M830 760 c0 -5 7 -7 15 -4 8 4 15 8 15 10 0 2 -7 4 -15 4 -8 0 -15
-4 -15 -10z"/>
<path d="M3175 760 c3 -5 8 -10 11 -10 2 0 4 5 4 10 0 6 -5 10 -11 10 -5 0 -7
-4 -4 -10z"/>
<path d="M3286 762 c-3 -5 1 -9 9 -9 8 0 12 4 9 9 -3 4 -7 8 -9 8 -2 0 -6 -4
-9 -8z"/>
<path d="M5711 767 c2 -1 12 -9 22 -16 15 -12 17 -12 11 3 -3 9 -13 16 -22 16
-8 0 -13 -1 -11 -3z"/>
<path d="M3255 751 c-3 -5 -2 -12 3 -15 5 -3 9 1 9 9 0 17 -3 19 -12 6z"/>
<path d="M5676 738 c3 -5 10 -6 15 -3 13 9 11 12 -6 12 -8 0 -12 -4 -9 -9z"/>
</g>
</svg>
